<svg xmlns="http://www.w3.org/2000/svg" xmlns:xlink="http://www.w3.org/1999/xlink" version="1.1" x="0px" y="0px" viewBox="0 0 352.81 630" style="enable-background:new 0 0 352.81 504;" xml:space="preserve"><path d="M36.463,504h279.881c20.106,0,36.463-16.357,36.463-36.463V311.416c0-16.536-11.197-31.042-27.229-35.276  c-23.917-6.317-47.193-11.227-69.715-14.734V219.15c5.946,1.718,16.235,4.167,28.065,4.722c1.604,0.075,3.183,0.112,4.741,0.112  c22.463,0,40.182-7.792,51.432-22.683c20.772-27.494,11.51-79.511,4.141-108.071c-2.83-10.968-13.417-18.07-24.626-16.512  c-5.972,0.829-11.237,3.953-14.825,8.797c-3.594,4.854-5.05,10.815-4.099,16.787c4.966,31.169,3.555,52.448-3.775,56.919  c-7.739,4.72-19.395-1.356-32.891-8.394c-0.972-0.507-1.956-1.019-2.947-1.532c14.667-2.18,25.957-14.854,25.957-30.118V56.283  c0-16.792-13.661-30.452-30.452-30.452h-29.632C214.208,9.934,196.267,0,176.404,0s-37.805,9.934-50.548,25.831H96.224  c-16.792,0-30.452,13.661-30.452,30.452v62.895c0,16.792,13.661,30.452,30.452,30.452h23.353  c-20.904,12.314-58.08,39.163-64.78,77.391c-2.551,14.555-0.306,28.655,4.29,41.47c-10.511,2.278-21.199,4.833-31.858,7.649  C11.197,280.375,0,294.88,0,311.416v156.121C0,487.643,16.357,504,36.463,504z M311.22,90.276c2.298-3.103,5.67-5.104,9.496-5.635  c7.176-0.993,13.966,3.554,15.781,10.587c1.452,5.627,3.258,13.365,4.812,22.182c-8.647,5.864-18.501,8.344-29.96,7.557  c-0.432-7.114-1.348-15.086-2.756-23.925C307.982,97.212,308.915,93.389,311.22,90.276z M256.583,33.831  c12.38,0,22.452,10.072,22.452,22.452v62.895c0,12.38-10.072,22.452-22.452,22.452h-11.844c-4.925-1.946-9.986-3.504-15.134-4.323  c10.421-14.554,16.732-33.404,16.732-53.989c0-18.518-5.103-35.639-13.714-49.487H256.583z M176.404,8  c34.15,0,61.934,33.788,61.934,75.318s-27.783,75.318-61.934,75.318s-61.934-33.788-61.934-75.318S142.253,8,176.404,8z   M193.865,164.007c-2.975,13.612-8.822,25.83-17.461,36.437c-8.639-10.607-14.486-22.825-17.461-36.437  c5.583,1.716,11.434,2.629,17.461,2.629S188.281,165.723,193.865,164.007z M96.224,141.629c-12.38,0-22.452-10.072-22.452-22.452  V56.283c0-12.38,10.072-22.452,22.452-22.452h23.96C111.573,47.679,106.47,64.8,106.47,83.318c0,22.685,7.658,43.272,20.046,58.312  H96.224z M62.677,228.401c7.714-44.017,60.611-72.291,72.275-78.031c4.655,4.095,9.752,7.511,15.185,10.145  c3.079,18.625,10.901,35.021,23.298,48.751c0.758,0.84,1.837,1.319,2.969,1.319s2.21-0.479,2.969-1.319  c12.397-13.73,20.218-30.127,23.298-48.751c7.773-3.768,14.856-9.142,20.947-15.795c12.399,0.541,24.749,6.964,36.711,13.201  c14.996,7.819,29.161,15.206,40.756,8.129c7.158-4.366,10.679-15.446,10.55-33.048c1.221,0.067,2.433,0.106,3.629,0.106  c10.071,0,19.247-2.383,27.413-7.118c3.433,24.183,3.917,53.447-8.956,70.487c-22.078,29.221-66.636,17.777-77.855,14.303V198.89  c0-2.209-1.791-4-4-4s-4,1.791-4,4v61.317c-24.834-3.525-48.712-5.302-71.459-5.302c-18.738,0-38.522,1.247-58.851,3.677  c-1.793-22.381,5.167-54.514,5.238-54.838c0.473-2.158-0.893-4.291-3.051-4.764c-2.159-0.469-4.291,0.893-4.764,3.05  c-0.304,1.385-7.419,34.199-5.351,57.829c0.3,3.429,1.007,6.964,2.102,10.588c-14.615,0.737-25.742,7.151-33.172,19.182  C67.764,272.828,58.709,251.047,62.677,228.401z M121.268,290.544c2.418,3.803,3.201,8.313,2.205,12.7  c-0.994,4.374-3.637,8.091-7.445,10.467c-6.882,4.294-15.819,3.048-21.249-2.969c-3.399-3.766-7.288-8.415-11.176-13.75  c6.406-12.533,16.596-18.655,31.078-18.63C116.44,282.337,118.635,286.403,121.268,290.544z M8,311.416  c0-12.908,8.748-24.233,21.272-27.542c10.99-2.903,22.011-5.529,32.828-7.851c7.465,16.821,18.459,30.903,26.741,40.079  c4.832,5.353,11.539,8.154,18.333,8.154c4.499,0,9.036-1.229,13.09-3.759c5.631-3.514,9.542-9.012,11.011-15.482  c1.472-6.483,0.316-13.146-3.255-18.763c-4.414-6.943-7.456-13.564-9.105-19.776c19.869-2.36,39.193-3.571,57.49-3.571  c44.952,0,94.454,7.055,147.132,20.969c12.524,3.308,21.272,14.634,21.272,27.542v156.121c0,15.694-12.769,28.463-28.463,28.463  H36.463C20.769,496,8,483.231,8,467.537V311.416z M251.071,296.74c-1.149-1.886-0.552-4.348,1.335-5.497  c1.886-1.151,4.347-0.552,5.497,1.335c13.095,21.492,20.087,47.869,20.783,78.4c0.05,2.208-1.699,4.04-3.908,4.09  c-0.031,0-0.062,0.001-0.093,0.001c-2.167,0-3.947-1.731-3.997-3.909C270.025,342.054,263.425,317.016,251.071,296.74z   M280.046,404.247c11.214,16.514,15.972,35.706,14.144,57.042c-0.179,2.084-1.926,3.658-3.981,3.658  c-0.114,0-0.23-0.005-0.346-0.015c-2.201-0.188-3.832-2.126-3.644-4.327c1.667-19.459-2.636-36.909-12.791-51.865  c-1.241-1.828-0.766-4.315,1.062-5.556C276.316,401.943,278.805,402.418,280.046,404.247z M75.563,387.11  c-1.314-19.507,1.893-37.845,9.53-54.502c0.921-2.008,3.296-2.889,5.303-1.969c2.008,0.921,2.89,3.295,1.969,5.303  c-7.076,15.433-10.044,32.467-8.821,50.631c0.148,2.204-1.518,4.111-3.722,4.259c-0.091,0.006-0.182,0.009-0.272,0.009  C77.463,390.842,75.706,389.223,75.563,387.11z M98.551,419.42c-3.376-15.592-3.376-31.404,0-46.997  c0.467-2.159,2.592-3.532,4.756-3.063c2.159,0.467,3.53,2.597,3.063,4.756c-3.133,14.469-3.133,29.141,0,43.61  c0.468,2.159-0.903,4.289-3.063,4.756c-0.285,0.062-0.57,0.092-0.851,0.092C100.614,422.574,98.957,421.294,98.551,419.42z"/><text x="0" y="519" fill="#000000" font-size="5px" font-weight="bold" font-family="'Helvetica Neue', Helvetica, Arial-Unicode, Arial, Sans-serif">Created by Amethyst Studio</text><text x="0" y="524" fill="#000000" font-size="5px" font-weight="bold" font-family="'Helvetica Neue', Helvetica, Arial-Unicode, Arial, Sans-serif">from the Noun Project</text></svg>