<svg xmlns="http://www.w3.org/2000/svg" viewBox="0 0 60 75" x="0px" y="0px"><path d="M30,1C13.178,1,0,14.933,0,32.72,0,47.7,11.5,57,30,57c1.367,0,2.684-.059,3.945-.158A5.856,5.856,0,0,0,38.519,59c.085,0,.171,0,.258-.005a6.035,6.035,0,0,0,4.8-2.618,2.9,2.9,0,0,1,2.806-1.163,8.794,8.794,0,0,0,5.963-1.124,6.272,6.272,0,0,0,2.949-4.184,3.261,3.261,0,0,1,1.533-2.15A4.834,4.834,0,0,0,58.9,42.69a4.781,4.781,0,0,0-.417-1.183A24.768,24.768,0,0,0,60,32.72C60,14.933,46.822,1,30,1ZM55.761,46.064h0a5.241,5.241,0,0,0-2.433,3.483,4.32,4.32,0,0,1-2.065,2.861,6.753,6.753,0,0,1-4.62.823,4.895,4.895,0,0,0-4.732,2.04A4.089,4.089,0,0,1,38.694,57a3.858,3.858,0,0,1-3.252-1.476C30.188,48.86,29.163,37.7,29.021,31.639a.6.6,0,0,1,.335-.581A.561.561,0,0,1,29.6,31a.54.54,0,0,1,.354.139c7.3,6.039,17.423,8.672,24.633,9.816a2.669,2.669,0,0,1,2.357,2.136A2.824,2.824,0,0,1,55.761,46.064ZM28.244,43.149a9.182,9.182,0,0,0-2.691.958A6.762,6.762,0,0,1,22,45a4,4,0,0,1,0-8,6.764,6.764,0,0,1,3.558.9,10.334,10.334,0,0,0,1.968.8C27.7,40.131,27.939,41.631,28.244,43.149Zm28.722-3.377a5.173,5.173,0,0,0-2.07-.79c-5.7-.906-16.358-3.329-23.668-9.379a2.52,2.52,0,0,0-2.739-.347,2.594,2.594,0,0,0-1.468,2.428c.032,1.381.115,3.028.275,4.818-.284-.12-.557-.252-.844-.4A8.748,8.748,0,0,0,22,35a6,6,0,0,0,0,12,8.742,8.742,0,0,0,4.445-1.1,7.111,7.111,0,0,1,2.231-.792A33.238,33.238,0,0,0,32.6,54.928c-.845.043-1.708.072-2.6.072C12.468,55,2,46.671,2,32.72,2,16.055,14.3,3,30,3S58,16.055,58,32.72A23.441,23.441,0,0,1,56.966,39.772Z"/><path d="M42.868,18.5a1,1,0,0,0-1.364-.372l-7,4a1,1,0,0,0,0,1.736l7,4a1,1,0,0,0,1.364-.372,1,1,0,0,0-.372-1.364L37.016,23l5.48-3.132A1,1,0,0,0,42.868,18.5Z"/><path d="M25.5,22.132l-7-4a1,1,0,0,0-.992,1.736L22.984,23,17.5,26.132A1,1,0,0,0,18,28a.988.988,0,0,0,.495-.132l7-4a1,1,0,0,0,0-1.736Z"/><path d="M21.9,11.553a1,1,0,0,0-1.342-.448l-6,3a1,1,0,0,0,.894,1.79l6-3A1,1,0,0,0,21.9,11.553Z"/><path d="M45.447,14.105l-6-3a1,1,0,0,0-.894,1.79l6,3a1,1,0,1,0,.894-1.79Z"/><path d="M41.515,50.143c-4.658-2.794-7.567-9.47-7.6-9.538a1,1,0,0,0-1.838.789c.128.3,3.188,7.334,8.4,10.463a1,1,0,0,0,1.03-1.714Z"/><path d="M49.2,44.02A24.237,24.237,0,0,1,40.6,40.2a1,1,0,0,0-1.2,1.6,25.871,25.871,0,0,0,9.4,4.18A.948.948,0,0,0,49,46a1,1,0,0,0,.2-1.98Z"/><text x="0" y="75" fill="#000000" font-size="5px" font-weight="bold" font-family="'Helvetica Neue', Helvetica, Arial-Unicode, Arial, Sans-serif">Created by Juicy Fish</text><text x="0" y="80" fill="#000000" font-size="5px" font-weight="bold" font-family="'Helvetica Neue', Helvetica, Arial-Unicode, Arial, Sans-serif">from the Noun Project</text></svg>