<svg xmlns="http://www.w3.org/2000/svg" fill="#000000" viewBox="0 0 48 60" x="0px" y="0px"><path d="M 23.222656 5.7675781 C 23.036078 5.7638852 22.848848 5.7725099 22.662109 5.7929688 C 22.163839 5.8475588 21.669036 5.9887242 21.201172 6.2226562 L 8.9316406 12.357422 C 7.6557099 12.995994 6.5586642 13.945832 5.7460938 15.119141 L 2.2675781 20.146484 A 1.50015 1.50015 0 1 0 4.7324219 21.853516 L 8.2128906 16.826172 C 8.73832 16.06748 9.4473678 15.454443 10.273438 15.041016 L 22.542969 8.90625 C 23.135511 8.6099787 23.829678 8.7732335 24.226562 9.3027344 A 1.50015 1.50015 0 0 0 24.226562 9.3046875 C 24.654643 9.8746585 24.575876 10.638893 24.044922 11.115234 L 16.078125 17.316406 A 1.50015 1.50015 0 0 0 15.751953 19.332031 L 17.751953 22.332031 A 1.50015 1.50015 0 0 0 18.636719 22.955078 L 30.636719 25.955078 A 1.50015 1.50015 0 0 0 31.621094 25.865234 L 37.121094 23.365234 A 1.50015 1.50015 0 0 0 37.929688 22.451172 L 40.052734 15.736328 C 40.312341 14.914414 41.133768 14.45483 41.970703 14.664062 C 42.880563 14.891792 43.388502 15.787515 43.115234 16.685547 L 40.720703 24.548828 L 32.544922 30 L 13 30 A 1.50015 1.50015 0 0 0 11.816406 30.578125 L 4.8164062 39.578125 A 1.5002492 1.5002492 0 0 0 7.1835938 41.421875 L 13.734375 33 L 33 33 A 1.50015 1.50015 0 0 0 33.832031 32.748047 L 42.832031 26.748047 A 1.50015 1.50015 0 0 0 43.435547 25.9375 L 45.984375 17.560547 C 46.745107 15.060579 45.231405 12.386224 42.697266 11.751953 C 40.350201 11.165187 37.919799 12.525945 37.191406 14.832031 L 35.271484 20.910156 L 34 21.488281 L 34 18.5 L 34 16.162109 C 34 13.328432 31.671568 11 28.837891 11 L 27.380859 11 C 27.627175 9.8122851 27.39894 8.5331119 26.626953 7.5039062 L 26.625 7.5019531 C 25.80125 6.4043962 24.528703 5.7934288 23.222656 5.7675781 z M 25.246094 13.982422 A 1.50015 1.50015 0 0 0 25.5 14 L 28.837891 14 C 30.050213 14 31 14.949787 31 16.162109 L 31 18.5 L 31 22.851562 L 30.855469 22.917969 L 28 22.203125 L 28 17.5 A 1.50015 1.50015 0 0 0 26.5 16 L 24.753906 16 C 24.190474 16 23.681839 15.821973 23.25 15.537109 L 25.246094 13.982422 z M 20.814453 17.431641 C 21.847188 18.401622 23.235674 19 24.753906 19 L 25 19 L 25 21.453125 L 19.925781 20.185547 L 19.021484 18.828125 L 20.814453 17.431641 z M 44.683594 29.390625 A 1.50015 1.50015 0 0 0 43.283203 30.275391 C 43.283203 30.275391 42.919242 31.098825 41.703125 32.138672 C 40.487008 33.178518 38.500942 34.32448 35.236328 34.59375 A 1.5001718 1.5001718 0 1 0 35.482422 37.583984 C 39.358808 37.264254 42.012211 35.820372 43.652344 34.417969 C 45.292477 33.015565 46.001953 31.544922 46.001953 31.544922 A 1.50015 1.50015 0 0 0 44.683594 29.390625 z M 46.431641 34.982422 A 1.50015 1.50015 0 0 0 45.158203 35.830078 C 45.158203 35.830078 43.477744 39.189355 39.435547 40.082031 A 1.50015 1.50015 0 1 0 40.082031 43.011719 C 45.521834 41.810395 47.841797 37.169922 47.841797 37.169922 A 1.50015 1.50015 0 0 0 46.431641 34.982422 z"/><text x="0" y="63" fill="#000000" font-size="5px" font-weight="bold" font-family="'Helvetica Neue', Helvetica, Arial-Unicode, Arial, Sans-serif">Created by NoNsEnSe ThInGs</text><text x="0" y="68" fill="#000000" font-size="5px" font-weight="bold" font-family="'Helvetica Neue', Helvetica, Arial-Unicode, Arial, Sans-serif">from the Noun Project</text></svg>