<svg xmlns="http://www.w3.org/2000/svg" version="1.1" viewBox="-5.0 -10.0 110.0 135.0">
 <path d="m73.75 13.781h-47.5c-0.29297 0-0.51953 0.23047-0.51953 0.51953v29.113c0 0.29297 0.23047 0.51953 0.51953 0.51953h47.5c0.29297 0 0.51953-0.23047 0.51953-0.51953v-29.113c0-0.28906-0.22656-0.51953-0.51953-0.51953zm-0.51953 29.113h-46.461v-18.125l2.332-2.5625c0.19922-0.21875 0.17578-0.54297-0.03125-0.73828-0.21875-0.1875-0.54297-0.17578-0.73828 0.03125l-1.5625 1.7188v-8.3945h7.6445l-3.875 4.2617c-0.19922 0.20703-0.17578 0.54297 0.03125 0.73828 0.10547 0.09375 0.23047 0.13672 0.35547 0.13672 0.14453 0 0.28125-0.050782 0.38672-0.16797l4.5195-4.957h37.395z"/>
 <path d="m28.363 29.082c0.10547 0.09375 0.23047 0.13672 0.35547 0.13672 0.14453 0 0.28125-0.050781 0.38672-0.16797l10.918-11.98c0.19922-0.20703 0.17578-0.54297-0.03125-0.73828-0.20703-0.19922-0.54297-0.17578-0.73828 0.03125l-10.922 11.992c-0.19531 0.20703-0.17578 0.53906 0.03125 0.72656z"/>
 <path d="m83.301 66.75h-2.6992v-1.7812c0-0.29297-0.23047-0.51953-0.51953-0.51953h-2.7695v-7.0938c0-1.7812-1.4492-3.2305-3.2305-3.2305-1.207 0-2.1875-0.98047-2.1875-2.1875v-3.4062h6.4492c0.29297 0 0.51953-0.23047 0.51953-0.51953v-38.305c0-0.29297-0.23047-0.51953-0.51953-0.51953h-56.688c-0.29297 0-0.51953 0.23047-0.51953 0.51953v38.301c0 0.29297 0.23047 0.51953 0.51953 0.51953h24.312v4.043l-11.293 0.003907h-0.011719c-0.09375 0-0.1875 0.03125-0.26172 0.082031-0.019532 0.011719-0.03125 0.019531-0.050782 0.042969-0.074218 0.0625-0.13672 0.13672-0.16797 0.23047l-1.5312 4.5938c-0.050782 0.15625-0.03125 0.33203 0.074218 0.46875 0.09375 0.13672 0.25 0.21875 0.42578 0.21875h33.711c0.050781 0 0.11328-0.011719 0.16797-0.03125 0.011719 0 0.019531-0.019532 0.042969-0.019532 0.019531-0.011718 0.050781-0.019531 0.074219-0.042968 0.042968-0.03125 0.082031-0.0625 0.11328-0.09375 0.011719-0.011719 0.019531-0.019532 0.03125-0.03125 0.011719-0.011719 0.011719-0.019532 0.011719-0.03125 0.03125-0.042969 0.042968-0.09375 0.0625-0.14453 0.011718-0.019531 0.011718-0.042968 0.019531-0.0625 0.011719-0.074218 0.011719-0.14453-0.019531-0.23047l-1.5312-4.5938c-0.074219-0.20703-0.26953-0.35547-0.48828-0.35547h-11.293v-4.043h16.824v3.4062c0 1.7812 1.4492 3.2305 3.2305 3.2305 1.207 0 2.1875 0.98047 2.1875 2.1875v7.0938h-2.7695c-0.29297 0-0.51953 0.23047-0.51953 0.51953v1.7812h-56.309c-0.96875 0-1.75 0.79297-1.75 1.75v20.562c0 0.96875 0.79297 1.75 1.75 1.75h66.605c0.96875 0 1.75-0.79297 1.75-1.75l-0.003907-20.562c0.011719-0.95703-0.78125-1.75-1.75-1.75zm-25.332-13.137h6.9805l1.1875 3.5508-19.512 0.003907h-12.75l1.1875-3.5508h18.457zm-10.969-1.0391v-4.043h5.9883v4.043zm6.5195-5.0859h-31.344v-37.258h55.645v37.262zm20.5 18h5.543v1.2617h-5.543zm10 23.574c0 0.39453-0.32422 0.70703-0.70703 0.70703h-66.613c-0.39453 0-0.70703-0.32422-0.70703-0.70703l-0.003907-20.562c0-0.39453 0.32422-0.70703 0.70703-0.70703h66.613c0.39453 0 0.70703 0.32422 0.70703 0.70703z"/>
 <path d="m22.043 70.043h-3.293c-0.29297 0-0.51953 0.23047-0.51953 0.51953v3.293c0 0.29297 0.23047 0.51953 0.51953 0.51953h3.293c0.29297 0 0.51953-0.23047 0.51953-0.51953v-3.293c0-0.29297-0.23047-0.51953-0.51953-0.51953zm-0.52344 3.2891h-2.25v-2.25h2.25z"/>
 <path d="m25.332 74.375h3.293c0.29297 0 0.51953-0.23047 0.51953-0.51953v-3.293c0-0.29297-0.23047-0.51953-0.51953-0.51953h-3.293c-0.29297 0-0.51953 0.23047-0.51953 0.51953v3.293c0 0.28125 0.23047 0.51953 0.51953 0.51953zm0.52344-3.293h2.25v2.25h-2.25z"/>
 <path d="m31.906 74.375h3.293c0.29297 0 0.51953-0.23047 0.51953-0.51953v-3.293c0-0.29297-0.23047-0.51953-0.51953-0.51953h-3.293c-0.29297 0-0.51953 0.23047-0.51953 0.51953v3.293c0 0.28125 0.23828 0.51953 0.51953 0.51953zm0.51953-3.293h2.25v2.25h-2.25z"/>
 <path d="m38.488 74.375h3.293c0.29297 0 0.51953-0.23047 0.51953-0.51953v-3.293c0-0.29297-0.23047-0.51953-0.51953-0.51953h-3.293c-0.29297 0-0.51953 0.23047-0.51953 0.51953v3.293c0 0.28125 0.23047 0.51953 0.51953 0.51953zm0.52344-3.293h2.25v2.25h-2.25z"/>
 <path d="m48.355 70.043h-3.293c-0.29297 0-0.51953 0.23047-0.51953 0.51953v3.293c0 0.29297 0.23047 0.51953 0.51953 0.51953h3.293c0.29297 0 0.51953-0.23047 0.51953-0.51953v-3.293c0-0.29297-0.23047-0.51953-0.51953-0.51953zm-0.52344 3.2891h-2.25v-2.25h2.25z"/>
 <path d="m54.938 70.043h-3.293c-0.29297 0-0.51953 0.23047-0.51953 0.51953v3.293c0 0.29297 0.23047 0.51953 0.51953 0.51953h3.293c0.29297 0 0.51953-0.23047 0.51953-0.51953v-3.293c0-0.29297-0.23828-0.51953-0.51953-0.51953zm-0.51953 3.2891h-2.25v-2.25h2.25z"/>
 <path d="m61.512 70.043h-3.293c-0.29297 0-0.51953 0.23047-0.51953 0.51953v3.293c0 0.29297 0.23047 0.51953 0.51953 0.51953h3.293c0.29297 0 0.51953-0.23047 0.51953-0.51953v-3.293c0-0.29297-0.23047-0.51953-0.51953-0.51953zm-0.52344 3.2891h-2.25v-2.25h2.25z"/>
 <path d="m68.094 70.043h-3.293c-0.29297 0-0.51953 0.23047-0.51953 0.51953v3.293c0 0.29297 0.23047 0.51953 0.51953 0.51953h3.293c0.29297 0 0.51953-0.23047 0.51953-0.51953v-3.293c0-0.29297-0.23828-0.51953-0.51953-0.51953zm-0.51953 3.2891h-2.25v-2.25h2.25z"/>
 <path d="m74.668 70.043h-3.293c-0.29297 0-0.51953 0.23047-0.51953 0.51953v3.293c0 0.29297 0.23047 0.51953 0.51953 0.51953h3.293c0.29297 0 0.51953-0.23047 0.51953-0.51953v-3.293c0-0.29297-0.23047-0.51953-0.51953-0.51953zm-0.52344 3.2891h-2.25v-2.25h2.25z"/>
 <path d="m81.25 70.043h-3.293c-0.29297 0-0.51953 0.23047-0.51953 0.51953v3.293c0 0.29297 0.23047 0.51953 0.51953 0.51953h3.293c0.29297 0 0.51953-0.23047 0.51953-0.51953v-3.293c0-0.29297-0.22656-0.51953-0.51953-0.51953zm-0.51953 3.2891h-2.25v-2.25h2.25z"/>
 <path d="m22.043 76.613h-3.293c-0.29297 0-0.51953 0.23047-0.51953 0.51953v3.293c0 0.29297 0.23047 0.51953 0.51953 0.51953h3.293c0.29297 0 0.51953-0.23047 0.51953-0.51953v-3.293c0-0.27734-0.23047-0.51953-0.51953-0.51953zm-0.52344 3.293h-2.25v-2.25h2.25z"/>
 <path d="m25.332 80.949h3.293c0.29297 0 0.51953-0.23047 0.51953-0.51953v-3.293c0-0.29297-0.23047-0.51953-0.51953-0.51953h-3.293c-0.29297 0-0.51953 0.23047-0.51953 0.51953v3.293c0 0.28906 0.23047 0.51953 0.51953 0.51953zm0.52344-3.293h2.25v2.25h-2.25z"/>
 <path d="m31.906 80.949h3.293c0.29297 0 0.51953-0.23047 0.51953-0.51953v-3.293c0-0.29297-0.23047-0.51953-0.51953-0.51953h-3.293c-0.29297 0-0.51953 0.23047-0.51953 0.51953v3.293c0 0.28906 0.23828 0.51953 0.51953 0.51953zm0.51953-3.293h2.25v2.25h-2.25z"/>
 <path d="m38.488 80.949h3.293c0.29297 0 0.51953-0.23047 0.51953-0.51953v-3.293c0-0.29297-0.23047-0.51953-0.51953-0.51953h-3.293c-0.29297 0-0.51953 0.23047-0.51953 0.51953v3.293c0 0.28906 0.23047 0.51953 0.51953 0.51953zm0.52344-3.293h2.25v2.25h-2.25z"/>
 <path d="m48.355 76.613h-3.293c-0.29297 0-0.51953 0.23047-0.51953 0.51953v3.293c0 0.29297 0.23047 0.51953 0.51953 0.51953h3.293c0.29297 0 0.51953-0.23047 0.51953-0.51953v-3.293c0-0.27734-0.23047-0.51953-0.51953-0.51953zm-0.52344 3.293h-2.25v-2.25h2.25z"/>
 <path d="m54.938 76.613h-3.293c-0.29297 0-0.51953 0.23047-0.51953 0.51953v3.293c0 0.29297 0.23047 0.51953 0.51953 0.51953h3.293c0.29297 0 0.51953-0.23047 0.51953-0.51953v-3.293c0-0.27734-0.23828-0.51953-0.51953-0.51953zm-0.51953 3.293h-2.25v-2.25h2.25z"/>
 <path d="m54.938 83.199h-3.293c-0.29297 0-0.51953 0.23047-0.51953 0.51953v3.293c0 0.29297 0.23047 0.51953 0.51953 0.51953h3.293c0.29297 0 0.51953-0.23047 0.51953-0.51953v-3.293c0-0.29297-0.23828-0.51953-0.51953-0.51953zm-0.51953 3.2891h-2.25v-2.25h2.25z"/>
 <path d="m61.512 76.613h-3.293c-0.29297 0-0.51953 0.23047-0.51953 0.51953v3.293c0 0.29297 0.23047 0.51953 0.51953 0.51953h3.293c0.29297 0 0.51953-0.23047 0.51953-0.51953v-3.293c0-0.27734-0.23047-0.51953-0.51953-0.51953zm-0.52344 3.293h-2.25v-2.25h2.25z"/>
 <path d="m68.094 76.613h-3.293c-0.29297 0-0.51953 0.23047-0.51953 0.51953v3.293c0 0.29297 0.23047 0.51953 0.51953 0.51953h3.293c0.29297 0 0.51953-0.23047 0.51953-0.51953v-3.293c0-0.27734-0.23828-0.51953-0.51953-0.51953zm-0.51953 3.293h-2.25v-2.25h2.25z"/>
 <path d="m74.668 76.613h-3.293c-0.29297 0-0.51953 0.23047-0.51953 0.51953v3.293c0 0.29297 0.23047 0.51953 0.51953 0.51953h3.293c0.29297 0 0.51953-0.23047 0.51953-0.51953v-3.293c0-0.27734-0.23047-0.51953-0.51953-0.51953zm-0.52344 3.293h-2.25v-2.25h2.25z"/>
 <path d="m81.25 76.613h-3.293c-0.29297 0-0.51953 0.23047-0.51953 0.51953v3.293c0 0.29297 0.23047 0.51953 0.51953 0.51953l3.293 0.003907c0.29297 0 0.51953-0.23047 0.51953-0.51953v-3.293c0-0.28125-0.22656-0.52344-0.51953-0.52344zm-0.51953 3.293h-2.25v-2.25h2.25z"/>
 <path d="m22.043 83.199h-3.293c-0.29297 0-0.51953 0.23047-0.51953 0.51953v3.293c0 0.29297 0.23047 0.51953 0.51953 0.51953h3.293c0.29297 0 0.51953-0.23047 0.51953-0.51953v-3.293c0-0.29297-0.23047-0.51953-0.51953-0.51953zm-0.52344 3.2891h-2.25v-2.25h2.25z"/>
 <path d="m48.355 83.199h-23.02c-0.29297 0-0.51953 0.23047-0.51953 0.51953v3.293c0 0.29297 0.23047 0.51953 0.51953 0.51953h23.02c0.29297 0 0.51953-0.23047 0.51953-0.51953v-3.293c0-0.29297-0.23047-0.51953-0.51953-0.51953zm-0.52344 3.2891h-21.98v-2.25h21.98z"/>
 <path d="m61.512 83.199h-3.293c-0.29297 0-0.51953 0.23047-0.51953 0.51953v3.293c0 0.29297 0.23047 0.51953 0.51953 0.51953h3.293c0.29297 0 0.51953-0.23047 0.51953-0.51953v-3.293c0-0.29297-0.23047-0.51953-0.51953-0.51953zm-0.52344 3.2891h-2.25v-2.25h2.25z"/>
 <path d="m68.094 83.199h-3.293c-0.29297 0-0.51953 0.23047-0.51953 0.51953v3.293c0 0.29297 0.23047 0.51953 0.51953 0.51953h3.293c0.29297 0 0.51953-0.23047 0.51953-0.51953v-3.293c0-0.29297-0.23828-0.51953-0.51953-0.51953zm-0.51953 3.2891h-2.25v-2.25h2.25z"/>
 <path d="m74.668 83.199h-3.293c-0.29297 0-0.51953 0.23047-0.51953 0.51953v3.293c0 0.29297 0.23047 0.51953 0.51953 0.51953h3.293c0.29297 0 0.51953-0.23047 0.51953-0.51953v-3.293c0-0.29297-0.23047-0.51953-0.51953-0.51953zm-0.52344 3.2891h-2.25v-2.25h2.25z"/>
 <path d="m81.25 83.199h-3.293c-0.29297 0-0.51953 0.23047-0.51953 0.51953v3.293c0 0.29297 0.23047 0.51953 0.51953 0.51953h3.293c0.29297 0 0.51953-0.23047 0.51953-0.51953v-3.293c0-0.29297-0.22656-0.51953-0.51953-0.51953zm-0.51953 3.2891h-2.25v-2.25h2.25z"/>
<text x="0.0" y="117.5" font-size="5.0" font-weight="bold" font-family="Arbeit Regular, Helvetica, Arial-Unicode, Arial, Sans-serif" fill="#000000">Created by icondesign178</text><text x="0.0" y="122.5" font-size="5.0" font-weight="bold" font-family="Arbeit Regular, Helvetica, Arial-Unicode, Arial, Sans-serif" fill="#000000">from Noun Project</text></svg>