<svg xmlns="http://www.w3.org/2000/svg" viewBox="0 0 64 80" x="0px" y="0px"><title>1</title><path d="M50.04785,42.08105,39.40039,38.92871a.99938.99938,0,0,0-1.24414.67188.98909.98909,0,0,0,.3941,1.09655,10.89921,10.89921,0,0,1-12.955-.20368,3.35779,3.35779,0,0,0,2.31769-3.6772l1.97664,1.03433a4.28365,4.28365,0,0,0,3.71972.13086l5.335-2.32911a7.6082,7.6082,0,0,0,4.56445-6.97265V26.05176a3.48911,3.48911,0,0,0,3.59079-3.73831A3.54626,3.54626,0,0,0,43.50879,19.126v-3.0166a7.62115,7.62115,0,0,0-7.61231-7.61231H28.60254a7.62115,7.62115,0,0,0-7.61231,7.61231v2.95019a3.51439,3.51439,0,1,0-.54583,6.99225l.54583-.00006v3.39648a6.16846,6.16846,0,0,0,3.31934,5.48242l1.60352.83912V37.415a1.2131,1.2131,0,0,1-.86133,1.1543L13.95215,41.85547A7.65723,7.65723,0,0,0,8.501,49.15527v5.12207a1.00019,1.00019,0,0,0,2-.00007v-5.122a5.644,5.644,0,0,1,4.01953-5.38183l8.91778-2.6413c1.23682,1.53931,3.688,3.2099,8.57831,3.62079.5597.00019,5.578-.07869,8.71167-3.3455L49.47949,43.999A5.644,5.644,0,0,1,53.499,49.38086v5.12207a1,1,0,0,0,2,0V49.38086A7.65725,7.65725,0,0,0,50.04785,42.08105ZM43.5127,21.126a1.467,1.467,0,1,1-.004,2.9258C43.51271,24.05171,43.50129,21.11821,43.5127,21.126ZM20.44434,24.05176a1.49616,1.49616,0,0,1,.00006-2.99219h.54583v2.99219Zm2.54589,5.39648V16.10938a5.61855,5.61855,0,0,1,5.61231-5.61231h7.29394a5.61855,5.61855,0,0,1,5.61231,5.61231v3.01593c-2.49937.02991-5.15724-3.45161-7.7412-2.22491-2.04961.87094-4.16819,2.08161-6.44536,2.16329-.61379.022-1.234-.00412-1.8486-.00412a1.00019,1.00019,0,0,0,.00007,2,13.06031,13.06031,0,0,0,5.81438-.90827l3.27247-1.415a1.20064,1.20064,0,0,1,1.03125.03515c1.5277.71951,4.157,2.49209,5.91692,2.35411-.00226.01987.00172,3.9191.00006,3.93582v3.61828a5.61124,5.61124,0,0,1-3.36524,5.14062l-5.335,2.3291a2.30074,2.30074,0,0,1-1.99121-.07031l-5.58105-2.91992A4.17453,4.17453,0,0,1,22.99023,29.44824Z"/><path d="M17.14453,48.7373a.99943.99943,0,0,0-1,1v4.543a1,1,0,0,0,2,0v-4.543A.99942.99942,0,0,0,17.14453,48.7373Z"/><path d="M47.27832,48.7373a.99943.99943,0,0,0-1,1v4.543a1,1,0,0,0,2,0v-4.543A.99943.99943,0,0,0,47.27832,48.7373Z"/><path d="M28.9834,24.93555a.99973.99973,0,0,0,.02148-1.41407L27.458,21.9248a1.00622,1.00622,0,0,0-1.45508.02053c-.52344.57127-1.168,1.25584-1.36719,1.44139a1.00626,1.00626,0,0,0,.5567,1.831c.40912,0,.53022-.03123,1.56635-1.1406l.81055.83691A1,1,0,0,0,28.9834,24.93555Z"/><path d="M36.21191,25.21777c.40918,0,.53125-.03125,1.56543-1.14062.36921.32735.95735,1.20969,1.52927,1.1406a1.00659,1.00659,0,0,0,.71776-1.69628L38.47656,21.9248a.999.999,0,0,0-1.45508.02149c-.52343.57129-1.167,1.25488-1.36718,1.44141A1.00609,1.00609,0,0,0,36.21191,25.21777Z"/><path d="M36.11621,31.77832a1.00048,1.00048,0,0,0-.6485-1.89255,9.342,9.342,0,0,1-6.29193,0,1.00029,1.00029,0,0,0-.64844,1.89258A11.44236,11.44236,0,0,0,36.11621,31.77832Z"/><text x="0" y="79" fill="#000000" font-size="5px" font-weight="bold" font-family="'Helvetica Neue', Helvetica, Arial-Unicode, Arial, Sans-serif">Created by Sentya Irma</text><text x="0" y="84" fill="#000000" font-size="5px" font-weight="bold" font-family="'Helvetica Neue', Helvetica, Arial-Unicode, Arial, Sans-serif">from the Noun Project</text></svg>