<svg xmlns="http://www.w3.org/2000/svg" version="1.1" viewBox="-5.0 -10.0 110.0 135.0">
 <path d="m40.086 52.309h-2.3867c-1.9375 0-1.9375-2.9297 0-2.9297h2.3867c1.9375 0 1.9375 2.9297 0 2.9297zm-2.3867-13.953h2.3867c1.9375 0 1.9375-2.9297 0-2.9297h-2.3867c-1.9375 0-1.9375 2.9297 0 2.9297zm-0.14453 6.9141c0-1.7695 2.6758-1.7695 2.6758 0 0 1.9336 2.9297 1.9375 2.9297 0 0-5.6406-8.5352-5.6406-8.5352 0 0 1.9375 2.9297 1.9375 2.9297 0zm62.445-40.859v91.184c0 2.4297-1.9766 4.4102-4.4102 4.4102l-91.18-0.003906c-2.4336 0-4.4102-1.9766-4.4102-4.4102v-91.18c0-2.4336 1.9766-4.4102 4.4102-4.4102h91.184c2.4297 0 4.4062 1.9766 4.4062 4.4102zm-2.9297 0c0-0.81641-0.66406-1.4805-1.4805-1.4805h-91.18c-0.81641 0-1.4805 0.66406-1.4805 1.4805v91.184c0 0.81641 0.66406 1.4805 1.4805 1.4805h91.184c0.81641 0 1.4805-0.66406 1.4805-1.4805zm-2.957 2.9414v85.297c0 0.80859-0.65625 1.4648-1.4648 1.4648h-38.992c-2.0859 3.4023-7.0156 3.4062-9.1055 0h-37.199c-0.80859 0-1.4648-0.65625-1.4648-1.4648v-85.297c0-0.80859 0.65625-1.4648 1.4648-1.4648h57.48c2.1172-2.2891 5.7188-2.2891 7.8359 0h19.98c0.80859 0 1.4648 0.65625 1.4648 1.4648zm-39.672 83.832h3.4688v-11.594h-15.82v11.594h1.6797c0.078125-2.875 2.4414-5.1914 5.3359-5.1914s5.2578 2.3164 5.3359 5.1914zm26.094-22.434c0-1.3281-1.0781-2.4062-2.4023-2.4102h-0.003906-0.003906c-1.3242 0.003906-2.4023 1.082-2.4023 2.4102s1.0781 2.4062 2.4023 2.4102h0.003906 0.003906c1.3242-0.003906 2.4023-1.082 2.4023-2.4102zm-0.94531-10.84h11.594v-15.82h-11.594zm11.594-34.57h-11.594v15.82h11.594zm-14.523 0h-41.723c-0.83203 1.8633-2.7031 3.168-4.875 3.168s-4.043-1.3047-4.875-3.168h-1.8477v53.32h53.32v-2.7773c-2.2344-0.64062-3.875-2.6953-3.875-5.1328s1.6406-4.4922 3.875-5.1328zm-44.188-2.1719c0-1.3281-1.082-2.4102-2.4102-2.4102s-2.4102 1.082-2.4102 2.4102 1.082 2.4102 2.4102 2.4102 2.4102-1.082 2.4102-2.4102zm25.438-0.75781v-11.594h-15.82v11.594zm-18.75-11.594h-15.82v11.594h1.4375c0.37109-2.5859 2.5977-4.5781 5.2852-4.5781s4.9141 1.9922 5.2852 4.5781h3.8125zm-30.344 49.094h11.594v-15.82h-11.594zm0-34.57v15.82h11.594v-15.82zm0 53.32h11.594v-15.82h-11.594zm14.523 14.523h15.82v-11.594h-15.82zm37.5 0h15.82v-11.594h-15.82zm30.344-14.523v-15.82h-11.594v2.7773c2.2344 0.64062 3.875 2.6953 3.875 5.1328s-1.6406 4.4922-3.875 5.1328v2.7773zm0-67.844h-11.594v11.594h11.594zm-24.844 0.69141c0 1.3281 1.082 2.4102 2.4102 2.4102s2.4102-1.082 2.4102-2.4102c0-1.3281-1.082-2.4062-2.4102-2.4062s-2.4102 1.0781-2.4102 2.4062zm-2.8828-0.69141h-2.6172v11.594h15.82v-11.594h-2.6172c0.41797 3.2148-2.0938 6.0312-5.293 6.0312-3.1953 0-5.7109-2.8125-5.293-6.0312zm-54.641 0v11.594h11.594v-11.594zm0 82.367h11.594v-11.594h-11.594zm42.699 0.14453c0-1.3281-1.082-2.4102-2.4102-2.4102s-2.4102 1.082-2.4102 2.4102 1.082 2.4102 2.4102 2.4102 2.4102-1.082 2.4102-2.4102zm39.668-0.14453v-11.594h-11.594v11.594zm-39.254-27.164h-14.898c-1.8438 0-3.3477-1.5-3.3477-3.3477v-2.2422h-2.2422c-1.8438 0-3.3438-1.5-3.3438-3.3438v-22.281c0-1.8438 1.5-3.3438 3.3438-3.3438h14.902c1.8438 0 3.3438 1.5 3.3438 3.3438v2.2422h2.2422c1.8438 0 3.3477 1.5 3.3477 3.3477v22.277c0 1.8477-1.5 3.3477-3.3477 3.3477zm-20.488-8.5195h14.902c0.23047 0 0.41406-0.1875 0.41406-0.41406v-22.281c0-0.23047-0.1875-0.41406-0.41406-0.41406h-14.902c-0.23047 0-0.41406 0.1875-0.41406 0.41406v22.281c0 0.23047 0.18359 0.41406 0.41406 0.41406zm20.906-17.105c0-0.23047-0.1875-0.41797-0.41797-0.41797h-2.2422v17.109c0 1.8438-1.5 3.3438-3.3438 3.3438h-9.7305v2.2422c0 0.23047 0.1875 0.41797 0.41797 0.41797h14.898c0.23047 0 0.41797-0.1875 0.41797-0.41797zm9.5664-1.7734v-4.3945c0-1.7773 1.4453-3.2227 3.2227-3.2227h4.3945c1.7773 0 3.2227 1.4453 3.2227 3.2227v4.3945c0 1.7773-1.4453 3.2227-3.2227 3.2227h-4.3945c-1.7773 0-3.2227-1.4453-3.2227-3.2227zm2.9297 0c0 0.16016 0.13281 0.29297 0.29297 0.29297h4.3945c0.16016 0 0.29297-0.13281 0.29297-0.29297v-4.3945c0-0.16016-0.13281-0.29297-0.29297-0.29297h-4.3945c-0.16016 0-0.29297 0.13281-0.29297 0.29297zm5.2852 9.3594c1.2578 1.2578 1.2578 3.3008 0 4.5586l-3.1055 3.1094c-1.2578 1.2578-3.3008 1.2578-4.5586 0l-3.1094-3.1094c-1.2578-1.2578-1.2578-3.3008 0-4.5586l3.1094-3.1094c1.2578-1.2578 3.3008-1.2578 4.5586 0zm-2.0742 2.0742-3.1055-3.1094c-0.11328-0.11328-0.30078-0.11328-0.41406 0l-3.1094 3.1094c-0.11328 0.11328-0.11328 0.30078 0 0.41406l3.1094 3.1094c0.11328 0.11328 0.30078 0.11328 0.41406 0l3.1055-3.1055c0.11719-0.12109 0.11719-0.30469 0-0.41797zm-21.527 19.969-1.3828 1.3828c-1.3672 1.3672 0.70703 3.4375 2.0703 2.0703l1.3828-1.3828c1.3711-1.3672-0.69922-3.4414-2.0703-2.0703zm-5.3672 2.2578h-1.6289c-1.9375 0-1.9375 2.9297 0 2.9297h1.6289c1.9375 0 1.9375-2.9297 0-2.9297zm23.531 0.007812c-0.72656-1.793-3.4414-0.69922-2.7148 1.0977l0.73438 1.8125c0.72656 1.793 3.4414 0.69922 2.7148-1.0977zm-1.2969-4.0898 0.63672-1.5c0.75781-1.7812-1.9414-2.9297-2.6953-1.1445l-0.63672 1.5c-0.75391 1.7812 1.9414 2.9258 2.6953 1.1445zm-7.2031 2.2031-1.8867 1.2188c-1.6172 1.043-0.046876 3.5156 1.5898 2.4609l1.8867-1.2188c1.625-1.0508 0.039062-3.5117-1.5898-2.4609z"/>
<text x="0.0" y="117.5" font-size="5.0" font-weight="bold" font-family="Arbeit Regular, Helvetica, Arial-Unicode, Arial, Sans-serif" fill="#000000">Created by Ferifrey</text><text x="0.0" y="122.5" font-size="5.0" font-weight="bold" font-family="Arbeit Regular, Helvetica, Arial-Unicode, Arial, Sans-serif" fill="#000000">from Noun Project</text></svg>