<svg xmlns="http://www.w3.org/2000/svg" version="1.1" viewBox="-5.0 -10.0 110.0 135.0">
 <g>
  <path d="m50 4.6875c-25 0-45.312 20.312-45.312 45.312s20.312 45.312 45.312 45.312 45.312-20.312 45.312-45.312-20.312-45.312-45.312-45.312zm0 87.5c-23.281 0-42.188-18.906-42.188-42.188s18.906-42.188 42.188-42.188 42.188 18.906 42.188 42.188-18.906 42.188-42.188 42.188z"/>
  <path d="m66.406 29.375c-3.5938 0-6.5625 2.9688-6.5625 6.5625s2.9688 6.5625 6.5625 6.5625 6.5625-2.9688 6.5625-6.5625-2.9688-6.5625-6.5625-6.5625zm0 10.156c-1.875 0-3.4375-1.5625-3.4375-3.4375s1.5625-3.4375 3.4375-3.4375 3.4375 1.5625 3.4375 3.4375-1.5625 3.4375-3.4375 3.4375z"/>
  <path d="m33.594 42.656c3.5938 0 6.5625-2.9688 6.5625-6.5625s-2.9688-6.5625-6.5625-6.5625-6.5625 2.9688-6.5625 6.5625 2.9688 6.5625 6.5625 6.5625zm0-10.156c1.875 0 3.4375 1.5625 3.4375 3.4375s-1.5625 3.4375-3.4375 3.4375-3.4375-1.5625-3.4375-3.4375 1.5625-3.4375 3.4375-3.4375z"/>
  <path d="m70.625 58.75c-0.78125-0.3125-1.7188 0-2.0312 0.78125 0 0.15625-5 10.781-18.438 10.781s-18.281-10.312-18.438-10.781c-0.3125-0.78125-1.25-1.0938-2.0312-0.78125s-1.0938 1.25-0.78125 2.0312c0.15625 0.46875 5.7812 12.5 21.406 12.5s21.094-12.031 21.406-12.5c0-0.78125-0.3125-1.7188-1.0938-2.0312z"/>
 </g>
<text x="0.0" y="117.5" font-size="5.0" font-weight="bold" font-family="Arbeit Regular, Helvetica, Arial-Unicode, Arial, Sans-serif" fill="#000000">Created by Rivki Saputra</text><text x="0.0" y="122.5" font-size="5.0" font-weight="bold" font-family="Arbeit Regular, Helvetica, Arial-Unicode, Arial, Sans-serif" fill="#000000">from Noun Project</text></svg>