<svg xmlns="http://www.w3.org/2000/svg" version="1.1" viewBox="-5.0 -10.0 110.0 135.0">
 <path d="m85.797 43.297-33.551-23.965c-1.3711-0.98047-3.125-0.98047-4.4961 0l-33.551 23.965c-1.0586 0.75391-1.6133 1.8359-1.6133 3.1406v37.105c0 2.125 1.7344 3.8594 3.8594 3.8594h67.102c2.1211 0 3.8594-1.7266 3.8594-3.8594l0.003906-37.105c-0.003906-1.3047-0.55859-2.3867-1.6133-3.1406zm-6.0352-18.461c-2.9766-2.0547-6.8164-4.625-7.5195-7.9844-0.49609-2.3828 0.30859-4.9492 3.4258-4.1016 2.8438 0.77734 3.5547 2.6836 4.8789 1.7109 1.8984-1.3906 5.8008-3.4102 6.7109-0.0625 1.2383 4.5352-4.1719 8.1445-7.4961 10.438zm1.7578 2.0039c-1.8398 1.2656-1.6641 1.2773-3.5195 0-4.2461-2.9258-9.918-7.1602-8.2891-13.133 1.3164-4.8203 6.1562-4.4492 10.047-1.9219 6.9375-4.5 11.293-0.023437 10.113 5.6055-0.89453 4.3086-5.0352 7.1641-8.3516 9.4492zm-39.684 23.32c1.6914 0.41406 1.0625 2.9883-0.63281 2.5742-7.0664-1.7344-4.9961 5.7656-3.2773 8.3359 0.96875 1.4492-1.2305 2.9219-2.1992 1.4727-3.7578-5.6094-2.9102-14.598 6.1094-12.383zm-3.6992 15.441c-1.0352-1.1445 0.49609-3.2539 2.1406-1.5938 1.1289 1.1406-0.53125 3.375-2.1406 1.5938zm11.074 16.289c-8.2617-5.8086-19.348-12.566-21.535-23.039-2.6055-12.453 6.9336-21.52 22.324-10.785 15.387-10.73 24.93-1.6719 22.324 10.785-2.1914 10.48-13.293 17.242-21.562 23.055-0.48047 0.33984-1.1055 0.31641-1.5508-0.015625zm-0.85938-3.8203c-7.2461-4.9961-16.301-11.238-18.082-19.758-0.73438-3.5-0.39062-7.7539 2.0273-10.324 4.4219-4.6992 12.559-0.42578 16.922 2.7773 0.48438 0.35547 1.1328 0.33203 1.5898-0.015625 2.5156-1.8867 5.6406-3.5781 8.4766-4.3516 8.7383-2.3867 11.945 4.7461 10.445 11.918-1.9062 9.1133-12.113 15.609-19.73 20.895-0.5-0.34766-1.0703-0.74219-1.6484-1.1406zm-22.172-46.586-8.6016 6.1445-0.003906-10.203h8.6016zm-11.258 8.043v-13.43c0-0.73438 0.59375-1.3281 1.3281-1.3281h11.258c0.73438 0 1.3281 0.59375 1.3281 1.3281v3.4883l17.383-12.414c2.3008-1.6445 5.2656-1.6445 7.5664 0l33.551 23.965c1.7578 1.2539 2.7344 3.1484 2.7344 5.3008v37.105c0 3.5859-2.9297 6.5156-6.5156 6.5156h-67.102c-3.5898 0-6.5156-2.9258-6.5156-6.5156l-0.003906-37.105c0-3.7773 2.4453-5.0938 4.9883-6.9102z" fill-rule="evenodd"/>
<text x="0.0" y="117.5" font-size="5.0" font-weight="bold" font-family="Arbeit Regular, Helvetica, Arial-Unicode, Arial, Sans-serif" fill="#000000">Created by Siti Zullyanti Afidah</text><text x="0.0" y="122.5" font-size="5.0" font-weight="bold" font-family="Arbeit Regular, Helvetica, Arial-Unicode, Arial, Sans-serif" fill="#000000">from Noun Project</text></svg>