<svg xmlns="http://www.w3.org/2000/svg" version="1.1" viewBox="-5.0 -10.0 110.0 135.0">
 <g>
  <path d="m94.746 4.4453h-89.09c-0.60547 0-1.0117 0.40234-1.0117 1.0117v89.09c0 0.60547 0.40234 1.0117 1.0117 1.0117h89.09c0.60547 0 1.0117-0.40234 1.0117-1.0117v-89.094c0-0.60547-0.40234-1.0078-1.0117-1.0078zm-88.078 2.0195h7.6758v87.07h-7.6758zm87.07 87.07h-77.375v-87.07h77.375z"/>
  <path d="m43.031 77.477v0.20313 0.10156s0 0.10156 0.10156 0.10156c0 0.10156 0.10156 0.10156 0.10156 0.20313l0.10156 0.10156c0.10156 0.10156 0.10156 0.10156 0.20312 0.10156 0 0 0.10156 0 0.10156 0.10156 0.10156 0 0.20312 0.10156 0.40234 0.10156h20.102c0.20312 0 0.40234-0.10156 0.50391-0.10156l9.5977-5.8594c0.10156 0 0.10156-0.10156 0.20312-0.10156l0.10156-0.10156c0-0.10156 0.10156-0.10156 0.10156-0.20312s0.10156-0.20312 0.10156-0.30469l-0.007812-0.10156v-0.20312-0.10156l-8.7891-23.84v-24.242c0-0.60547-0.40234-1.0117-1.0117-1.0117l-20.906 0.003907c-0.60547 0-1.0117 0.40234-1.0117 1.0117l0.003906 24.141v30 0zm2.0195-24.344 6.5664 17.98-6.5664 4.3438zm18.789 23.23h-16.465l5.7578-3.8398h16.969zm-10.305-5.8594-8.082-22.02h18.688l8.1836 22.02zm-8.4844-46.16h18.789v22.121h-18.789z"/>
 </g>
<text x="0.0" y="117.5" font-size="5.0" font-weight="bold" font-family="Arbeit Regular, Helvetica, Arial-Unicode, Arial, Sans-serif" fill="#000000">Created by Michael Appleford</text><text x="0.0" y="122.5" font-size="5.0" font-weight="bold" font-family="Arbeit Regular, Helvetica, Arial-Unicode, Arial, Sans-serif" fill="#000000">from Noun Project</text></svg>