<svg xmlns="http://www.w3.org/2000/svg" xmlns:xlink="http://www.w3.org/1999/xlink" version="1.1" x="0px" y="0px" viewBox="0 0 100 125" style="enable-background:new 0 0 100 100;" xml:space="preserve"><path d="M50,10c-22.0556641,0-40,17.9438477-40,40s17.9443359,40,40,40s40-17.9438477,40-40S72.0556641,10,50,10z M50,88  c-20.953125,0-38-17.046875-38-38s17.046875-38,38-38s38,17.046875,38,38S70.953125,88,50,88z"/><path d="M68.1972656,31.8442383c-0.2587891,0-0.5078125,0.1005859-0.6943359,0.2797852L54.9628906,44.2109375  C54.5654297,44.5942383,54.5537109,45.2275391,54.9375,45.625c0.3837891,0.3989258,1.0166016,0.409668,1.4140625,0.0263672  l3.4628906-3.3383789c0.8583984,3.8364258,4.2910156,6.7119141,8.3828125,6.7119141  c4.7373047,0,8.5908203-3.8535156,8.5908203-8.590332S72.9345703,31.8442383,68.1972656,31.8442383z M68.1972656,47.0249023  c-3.5839844,0-6.5087891-2.8759766-6.5878906-6.4414062l6.9794922-6.7275391  c3.4521484,0.203125,6.1992188,3.0761719,6.1992188,6.5786133C74.7880859,44.0683594,71.8310547,47.0249023,68.1972656,47.0249023z"/><path d="M40.1855469,42.3129883l3.4628906,3.3383789C44.046875,46.034668,44.6787109,46.0239258,45.0625,45.625  c0.3837891-0.3974609,0.3720703-1.0307617-0.0253906-1.4140625L32.4970703,32.1240234  c-0.1865234-0.1791992-0.4355469-0.2797852-0.6943359-0.2797852c-4.7373047,0-8.5908203,3.8535156-8.5908203,8.590332  s3.8535156,8.590332,8.5908203,8.590332C35.8945312,49.0249023,39.3271484,46.1494141,40.1855469,42.3129883z   M25.2119141,40.4345703c0-3.5024414,2.7470703-6.3754883,6.1992188-6.5786133l6.9794922,6.7275391  c-0.0791016,3.5654297-3.0039062,6.4414062-6.5878906,6.4414062C28.1689453,47.0249023,25.2119141,44.0683594,25.2119141,40.4345703  z"/><path d="M69.4199219,68.4462891c-1.0568848-0.2003174-2.0136719-0.1036377-2.864624,0.1647339  C65.8891602,60.0525513,58.7270508,53.2880859,50,53.2880859c-8.7258301,0-15.8874512,6.7627563-16.5551758,15.3197021  c-0.8498535-0.2668457-1.8061523-0.3623047-2.8647461-0.161499c-0.5419922,0.1025391-0.8984375,0.6259766-0.7958984,1.168457  c0.1035156,0.5429688,0.6210938,0.9052734,1.1689453,0.7963867c3.1025391-0.5844727,4.7548828,2.5043945,4.8232422,2.6362305  c0.1777344,0.3442383,0.5273438,0.5415039,0.8896484,0.5415039c0.1533203,0,0.3085938-0.0351562,0.4541016-0.1098633  c0.4921875-0.2514648,0.6865234-0.8535156,0.4355469-1.3452148c-0.3747559-0.7320557-1.114502-1.7246704-2.1621094-2.5125732  C35.5487061,61.692749,42.0345459,55.2880859,50,55.2880859c7.967041,0,14.4538574,6.4070435,14.6066895,14.3376465  c-1.0469971,0.7869263-1.7880859,1.7770386-2.1623535,2.5080566c-0.25,0.4902344-0.0566406,1.0893555,0.4326172,1.3417969  c0.1464844,0.0756836,0.3027344,0.1113281,0.4570312,0.1113281c0.3613281,0,0.7109375-0.1967773,0.8896484-0.5395508  c0.0683594-0.1313477,1.71875-3.2246094,4.8232422-2.6362305c0.5488281,0.1040039,1.0664062-0.2539062,1.1689453-0.7963867  S69.9619141,68.5488281,69.4199219,68.4462891z"/><text x="0" y="115" fill="#000000" font-size="5px" font-weight="bold" font-family="'Helvetica Neue', Helvetica, Arial-Unicode, Arial, Sans-serif">Created by Made by Made</text><text x="0" y="120" fill="#000000" font-size="5px" font-weight="bold" font-family="'Helvetica Neue', Helvetica, Arial-Unicode, Arial, Sans-serif">from the Noun Project</text></svg>