<svg xmlns="http://www.w3.org/2000/svg" xmlns:xlink="http://www.w3.org/1999/xlink" version="1.1" x="0px" y="0px" viewBox="0 0 491.5 614.375" style="enable-background:new 0 0 491.5 491.5;" xml:space="preserve"><style type="text/css">
	.st0{fill-rule:evenodd;clip-rule:evenodd;}
</style><g><g><path class="st0" d="M407.6,462.7H83.9c-2.6,0-4.7-2.1-4.7-4.7l0-80.7c0-27.9,44.5-45.4,60.1-49.3    c32.1-8,50.7-20.6,58.9-27.4c3.4-2.8,5.2-6.5,5.2-11l0-30.8c0-2.6,2.1-4.7,4.7-4.7c2.6,0,4.7,2.1,4.7,4.7l0,30.8    c0,7.3-3,13.6-8.6,18.3c-8.8,7.3-28.7,20.8-62.6,29.2c-18.5,4.6-53,21.1-53,40.1l0,76h314.2v-76c0-19-34.5-35.5-53-40.1    c-33.9-8.5-53.8-22-62.6-29.2c-5.6-4.6-8.6-11-8.6-18.3l0-30.8c0-2.6,2.1-4.7,4.7-4.7c2.6,0,4.7,2.1,4.7,4.7l0,30.8    c0,4.4,1.7,8.1,5.2,11c8.2,6.8,26.7,19.3,58.9,27.4c15.6,3.9,60.1,21.3,60.1,49.3l0,80.7C412.4,460.6,410.2,462.7,407.6,462.7    L407.6,462.7z"/><path class="st0" d="M302.8,300.5c-13,0-20.7-3.8-21.4-4.2c-2.3-1.2-3.2-4.1-2-6.4c1.2-2.3,4.1-3.2,6.4-2    c0.1,0,8.2,4,22.1,2.8c13-1.1,33.9-7.1,59.4-29.2c1.8-1.5,2.2-4.1,0.9-6.1c-15.3-24.2-16.5-60.9-17.6-93.3    c-0.5-13.1-0.9-25.5-2.2-35.6c-8.1-61-57.3-88.3-102.5-88.3c-45.2,0-94.4,27.3-102.5,88.3c-1.3,10.1-1.8,22.5-2.2,35.6    c-1.1,32.4-2.4,69.1-17.6,93.3c-1.3,2-0.9,4.6,0.9,6.1c48.9,42.5,81.1,26.6,81.5,26.4c2.3-1.2,5.2-0.3,6.4,2    c1.2,2.3,0.3,5.2-2,6.4c-1.5,0.8-38.3,19-92-27.7c-5.3-4.6-6.5-12.3-2.7-18.3c13.9-22,15.1-57.3,16.2-88.5    c0.5-13.4,0.9-26,2.3-36.5c4-30,17.8-55,39.9-72.4c19.8-15.5,45.4-24.1,72-24.1c26.7,0,52.2,8.6,72,24.1    c22.1,17.4,35.9,42.4,39.9,72.4c1.4,10.6,1.8,23.2,2.3,36.5c1.1,31.2,2.3,66.6,16.2,88.5c3.8,6,2.6,13.7-2.7,18.3    C343.6,294.6,319,300.5,302.8,300.5L302.8,300.5z"/><path class="st0" d="M136.8,150.8c-2.4,0-4.5-1.8-4.7-4.2c-0.3-2.6,1.6-4.9,4.2-5.2c33.6-3.5,81.5-20.2,94.9-33.2    c1.6-1.5,4-1.8,5.9-0.6l0.6,0.4c29.8,19.5,53.3,34.9,116.8,31.7c2.6-0.1,4.8,1.9,5,4.5c0.1,2.6-1.9,4.8-4.5,5    c-5.6,0.3-11,0.4-16.1,0.4c-53.3,0-77.5-14.8-104-32.1c-17.6,13.8-63.8,29.8-97.6,33.3C137.1,150.8,136.9,150.8,136.8,150.8    L136.8,150.8z"/><path class="st0" d="M148.3,462.7c-2.6,0-4.7-2.1-4.7-4.7l0-56c0-2.6,2.1-4.7,4.7-4.7c2.6,0,4.7,2.1,4.7,4.7l0,56    C153.1,460.6,151,462.7,148.3,462.7L148.3,462.7z"/><path class="st0" d="M343.2,462.7c-2.6,0-4.7-2.1-4.7-4.7l0-56c0-2.6,2.1-4.7,4.7-4.7s4.7,2.1,4.7,4.7l0,56    C347.9,460.6,345.8,462.7,343.2,462.7L343.2,462.7z"/><path class="st0" d="M245.8,345.6c-20.9,0-41.8-9.2-62.5-27.5c-2-1.7-2.1-4.7-0.4-6.7c1.7-2,4.7-2.1,6.7-0.4    c37.8,33.4,74.7,33.4,112.5,0c2-1.7,5-1.5,6.7,0.4c1.7,2,1.5,5-0.4,6.7C287.5,336.4,266.7,345.6,245.8,345.6L245.8,345.6z"/><path class="st0" d="M245.8,225.7c-6.6,0-13.1-1.9-19.7-5.6c-2.3-1.3-3.1-4.2-1.8-6.5c1.3-2.3,4.2-3.1,6.5-1.8    c10.1,5.7,19.9,5.7,29.9,0c2.3-1.3,5.2-0.5,6.5,1.8c1.3,2.3,0.5,5.2-1.8,6.5C258.9,223.9,252.3,225.7,245.8,225.7L245.8,225.7z"/><path class="st0" d="M208.1,181.6c-2.6,0-4.7-2.1-4.7-4.7l0-12.7c0-2.6,2.1-4.7,4.7-4.7c2.6,0,4.7,2.1,4.7,4.7    l0,12.7C212.8,179.5,210.7,181.6,208.1,181.6z"/><path class="st0" d="M283.5,181.6c-2.6,0-4.7-2.1-4.7-4.7l0-12.7c0-2.6,2.1-4.7,4.7-4.7c2.6,0,4.7,2.1,4.7,4.7    l0,12.7C288.2,179.5,286.1,181.6,283.5,181.6L283.5,181.6z"/><path class="st0" d="M245.8,272.8c-48,0-87-39-87-87l0-45c0-2.6,2.1-4.7,4.7-4.7c2.6,0,4.7,2.1,4.7,4.7v45    c0,42.7,34.8,77.5,77.5,77.5c42.7,0,77.5-34.8,77.5-77.5l0-41.2c0-2.6,2.1-4.7,4.7-4.7c2.6,0,4.7,2.1,4.7,4.7v41.2    C332.7,233.8,293.7,272.8,245.8,272.8L245.8,272.8z"/><path class="st0" d="M227,370.5c-7.8,0-14.1,6.3-14.1,14.1c0,15.8,16.2,33,32.9,49.7    c16.7-16.8,32.9-33.9,32.9-49.7c0-7.8-6.3-14.1-14.1-14.1c-6.8,0-10.2,2.7-14.6,11.5c-0.8,1.6-2.4,2.6-4.2,2.6    c-1.8,0-3.4-1-4.2-2.6C237.1,373.2,233.7,370.5,227,370.5L227,370.5z M245.8,445.7c-1.2,0-2.4-0.5-3.3-1.4    c-19.2-19.2-39-39-39-59.8c0-13,10.6-23.5,23.5-23.5c9,0,14.5,3.6,18.8,9.6c4.3-5.9,9.8-9.6,18.8-9.6c13,0,23.5,10.6,23.5,23.5    c0,20.8-19.8,40.6-39,59.8C248.2,445.3,247,445.7,245.8,445.7z"/></g></g><text x="0" y="506.5" fill="#000000" font-size="5px" font-weight="bold" font-family="'Helvetica Neue', Helvetica, Arial-Unicode, Arial, Sans-serif">Created by Maan Icons</text><text x="0" y="511.5" fill="#000000" font-size="5px" font-weight="bold" font-family="'Helvetica Neue', Helvetica, Arial-Unicode, Arial, Sans-serif">from the Noun Project</text></svg>