<svg xmlns="http://www.w3.org/2000/svg" version="1.1" viewBox="-5.0 -10.0 110.0 135.0">
 <path d="m20.992 53.109c1 1.6641 2.6406 2.7773 4.5039 3.0586l10.539 1.5938-1.8164 17.301c-0.20703 1.9531 0.41406 3.8984 1.707 5.332 1.2227 1.3555 2.8789 2.1055 4.6602 2.1055 1.707 0 3.2344-0.99219 3.9961-2.6016l8.2891-18.363c1.1133-2.3516 3.332-3.8086 5.793-3.8086h4.2852v4.7734h17.977v-40h-17.977v5h-8.457c-3.7422 0-7.4805-1.1094-10.773-2.0898-3.0859-0.91797-5.7695-1.3828-8.0859-1.3828-5.0781 0-8.3711 2.2344-10.168 6.8008l-5.0664 16.391c-0.69141 1.9688-0.47656 4.1133 0.59375 5.8906zm44.457-28.109h12.977v35h-12.977zm-42.676 23.004 5.0469-16.348c1.4609-3.7031 4.4023-7.0586 15.188-3.8477 3.457 1.0273 7.375 2.1914 11.484 2.1914h8.457v25.227h-4.2852c-3.4375 0-6.5234 2.0078-8.0625 5.2578l-8.2891 18.367c-0.33203 0.70703-0.99609 1.1484-1.7266 1.1484-1.0664 0-2.0625-0.45312-2.8047-1.2812-0.81641-0.90625-1.2109-2.1445-1.0781-3.3945l2.0664-19.676-12.902-1.9492c-1.1211-0.17188-2.1172-0.85547-2.7344-1.8789-0.68359-1.1328-0.82031-2.5078-0.35937-3.8164z"/>
<text x="0.0" y="117.5" font-size="5.0" font-weight="bold" font-family="Arbeit Regular, Helvetica, Arial-Unicode, Arial, Sans-serif" fill="#000000">Created by Marco Galtarossa</text><text x="0.0" y="122.5" font-size="5.0" font-weight="bold" font-family="Arbeit Regular, Helvetica, Arial-Unicode, Arial, Sans-serif" fill="#000000">from Noun Project</text></svg>