<svg xmlns="http://www.w3.org/2000/svg" version="1.1" viewBox="-5.0 -10.0 110.0 135.0">
 <path d="m77.945 70.852c-0.24219-0.13672-0.48047-0.26953-0.73437-0.40625-1.7969-0.96484-3.6758-1.9062-5.6992-2.8633 4.3789-4.7891 6.6797-11.004 6.6797-18.098v-13.18c0-5.2109-0.98828-9.9531-2.9414-14.102-1.6758-3.5625-4.0234-6.6172-6.9844-9.0938l2.3789-10.289c0.097657-0.41406-0.003906-0.85547-0.26953-1.1875-0.26562-0.33594-0.67188-0.53125-1.0977-0.53125l-38.555-0.003906c-0.42578 0-0.83203 0.19531-1.0977 0.52734-0.26562 0.33594-0.36328 0.77344-0.26953 1.1875l2.375 10.289c-2.9609 2.4766-5.3086 5.5312-6.9844 9.0977-1.9492 4.1484-2.9375 8.8945-2.9375 14.102v13.18c0 7.0938 2.3008 13.305 6.6758 18.098-2.0273 0.95703-3.9062 1.9023-5.6992 2.8633-0.21094 0.11328-0.48438 0.26172-0.74609 0.41406-4.6875 2.6719-7.3789 7.2969-7.3789 12.691l0.003906 13.953c0 0.77344 0.62891 1.4023 1.4023 1.4023h67.875c0.77344 0 1.4023-0.62891 1.4023-1.4023l-0.003906-13.949c0-5.3906-2.6953-10.02-7.3945-12.699zm-53.332-21.367v-13.18c0-10.16 3.9414-16.402 7.8359-20.086l1.0938 4.7422c0.14844 0.64844 0.72656 1.0859 1.3633 1.0859 0.10547 0 0.21094-0.011719 0.31641-0.035156 0.75391-0.17578 1.2266-0.92578 1.0508-1.6836l-3.7891-16.426h35.031l-3.4258 14.809c-4.0547-1.543-8.9883-2.3828-14.09-2.3828-3.7422 0-7.3164 0.43359-10.625 1.2891-0.75 0.19531-1.1992 0.95703-1.0078 1.707 0.19531 0.75 0.95703 1.1992 1.707 1.0078 3.0781-0.79688 6.418-1.1992 9.9258-1.1992 5.3906 0 10.543 0.98828 14.504 2.7852 0.38281 0.17578 0.82422 0.16797 1.1992-0.019531 0.37891-0.1875 0.64844-0.53125 0.74609-0.94141l1.0977-4.7383c3.8984 3.6875 7.8398 9.9297 7.8398 20.086v13.18c0 6.6992-2.2656 12.508-6.5664 16.855-1.6523-0.74219-3.4023-1.4961-5.2734-2.2734l-1.5117-4.0195c0.37891-0.26953 0.76562-0.55469 1.1602-0.84766 4.8086-3.5977 7.4609-9.0078 7.4609-15.234v-10.488c0-0.43359-0.20312-0.84766-0.54688-1.1094-0.34375-0.26563-0.79297-0.35547-1.2148-0.24219-0.93359 0.24609-1.918 0.37109-2.9219 0.37109-6.0625 0-12.098-4.4062-14.676-10.715-0.21484-0.52734-0.72656-0.87109-1.2969-0.87109s-1.082 0.34375-1.2969 0.87109c-2.5859 6.3047-8.6211 10.707-14.684 10.707-1 0-1.9805-0.125-2.9141-0.37109-0.42188-0.10938-0.86719-0.019532-1.2148 0.24219-0.34375 0.26562-0.54688 0.67578-0.54688 1.1094v10.488c0 6.2305 2.6484 11.645 7.4609 15.234 0.39062 0.28906 0.77344 0.57422 1.1562 0.84766l-1.5117 4.0234c-1.8711 0.77734-3.6172 1.5312-5.2656 2.2734-4.3008-4.3438-6.5703-10.148-6.5703-16.852zm36.906 7.4688c-5.1211 3.8281-8.5039 5.3711-11.656 5.3438-3.0859-0.03125-6.2773-1.5312-11.383-5.3438-4.0859-3.0508-6.3359-7.6641-6.3359-12.988v-8.7891c0.61719 0.082031 1.2422 0.12109 1.8711 0.12109 6.2812 0 12.512-3.9297 15.98-9.8359 3.4648 5.9062 9.6914 9.8359 15.977 9.8359 0.63281 0 1.2617-0.039063 1.8789-0.12109v8.7891c0 5.3203-2.2461 9.9336-6.332 12.988zm-44.051 39.145v-12.547c0-4.3594 2.1719-8.0977 5.9766-10.262 0.23438-0.13672 0.48047-0.26953 0.67188-0.37109 2.25-1.207 4.6484-2.3906 7.3125-3.6094 0.011718-0.003906 0.023437-0.011719 0.035156-0.015625 1.5625-0.71484 3.2188-1.4375 4.9883-2.1836l5.0781 28.988zm38.148 0h-11.238l-2.2969-13.098c2.6055 0.33984 5.2617 0.51562 7.918 0.51562s5.3086-0.17578 7.9102-0.51172zm-14.043-16-2.5938-14.805 1.3594-3.6172c3.2656 2.0938 6.2969 3.3906 9.4922 3.4219h0.12891c2.9297 0 5.8984-1.0312 9.6875-3.4336l1.3633 3.6289-2.5898 14.805c-5.5195 0.80469-11.316 0.80469-16.848 0zm40.957 16h-24.066l5.0781-28.992c1.7773 0.75 3.4414 1.4766 5.0117 2.1953 0.003906 0.003907 0.007812 0.003907 0.011718 0.003907 2.6602 1.2148 5.0625 2.4023 7.3203 3.6133 0.23438 0.125 0.46094 0.25391 0.67578 0.37109 3.793 2.1641 5.9688 5.9023 5.9688 10.262zm-39.992-54.543c-0.66797 0-1.2109 0.54297-1.2109 1.2109 0 0.77344-0.62891 1.4023-1.4023 1.4023-0.77344 0-1.4023-0.62891-1.4023-1.4023 0-2.2148 1.8008-4.0156 4.0117-4.0156 2.2148 0 4.0117 1.8008 4.0117 4.0156 0 0.77344-0.62891 1.4023-1.4023 1.4023-0.77344 0-1.4023-0.62891-1.4023-1.4023 0.007812-0.66797-0.53516-1.2109-1.2031-1.2109zm18.934 1.2109c0 0.77344-0.62891 1.4023-1.4023 1.4023-0.77344 0-1.4023-0.62891-1.4023-1.4023 0-0.66797-0.54297-1.2109-1.2109-1.2109-0.67188 0-1.2148 0.54297-1.2148 1.2109 0 0.77344-0.62891 1.4023-1.4023 1.4023-0.77344 0-1.4023-0.62891-1.4023-1.4023 0-2.2148 1.8047-4.0156 4.0195-4.0156 2.2148 0 4.0156 1.8008 4.0156 4.0156zm-5.1523 9.2305c-1.8047 2.1836-3.9922 3.3359-6.3203 3.3359-2.3359 0-4.5234-1.1523-6.3203-3.3359-0.49219-0.59766-0.40625-1.4805 0.19141-1.9727 0.59766-0.49219 1.4805-0.40625 1.9727 0.19141 0.87109 1.0586 2.3008 2.3164 4.1562 2.3164 1.8516 0 3.2852-1.2617 4.1602-2.3203 0.49219-0.59766 1.3789-0.67969 1.9727-0.1875 0.59766 0.49609 0.67969 1.3789 0.1875 1.9727zm-11.57-41.703c0-0.77344 0.62891-1.4023 1.4023-1.4023h2.4453v-2.4453c0-0.77344 0.62891-1.4023 1.4023-1.4023s1.4023 0.62891 1.4023 1.4023v2.4453h2.4453c0.77344 0 1.4023 0.62891 1.4023 1.4023 0 0.77344-0.62891 1.4023-1.4023 1.4023h-2.4453v2.4453c0 0.77344-0.62891 1.4023-1.4023 1.4023s-1.4023-0.62891-1.4023-1.4023v-2.4453h-2.4453c-0.77344 0-1.4023-0.625-1.4023-1.4023z"/>
<text x="0.0" y="117.5" font-size="5.0" font-weight="bold" font-family="Arbeit Regular, Helvetica, Arial-Unicode, Arial, Sans-serif" fill="#000000">Created by kliwir art</text><text x="0.0" y="122.5" font-size="5.0" font-weight="bold" font-family="Arbeit Regular, Helvetica, Arial-Unicode, Arial, Sans-serif" fill="#000000">from Noun Project</text></svg>