<svg xmlns="http://www.w3.org/2000/svg" version="1.1" viewBox="-5.0 -10.0 110.0 135.0">
 <g fill-rule="evenodd">
  <path d="m48.57 20.77c-12.129 0.83984-23.113 3.4258-30.164 5.7656-1.3125 0.43359-2.7148 0.23828-3.8945-0.38281-2.3242-1.2227-5.9922-2.668-9.5352-2.668-0.90234 0-1.4062 0.15625-1.6719 0.32812-0.22266 0.14844-0.30859 0.32812-0.3125 0.59375-0.003907 0.30469 0.10937 0.71094 0.35156 1.1953 0.24219 0.48047 0.57812 0.98438 0.96094 1.4688 0.76172 0.97656 1.2461 2.2383 1.1445 3.5352-1.543 19.297 1.3594 27.773 4.5391 32.496 1.1914 1.7734 2.4102 3.0156 3.5273 4.1484 0.39062 0.39844 0.76953 0.78516 1.1289 1.1719 1.375 1.4961 2.4141 3.0156 2.4141 5.4297 0 2.8438 0.85547 4.0156 1.7734 4.4648 0.98438 0.48438 2.3398 0.29688 3.6328-0.22656 1.0703-0.42969 2.293-0.64453 3.4922-0.34766 8.2383 2.0352 19.383 2.0977 30.27 1.2812 10.867-0.8125 21.414-2.4922 28.414-3.9141 1.3828-0.28125 2.7812 0.11719 3.8555 0.97656 1.3398 1.0703 2.8438 2.0859 3.9727 2.4844 0.58594 0.20703 0.91406 0.19141 1.0547 0.12109 0.0625-0.03125 0.25-0.14453 0.25-0.77734 0-1.168-0.23047-2.1602-0.5625-2.9805-0.81641-2.0195-1.4258-4.7773-0.52734-6.9922 2-4.918 2.7031-11.613 2.7109-18.262 0.011719-6.6328-0.67188-13.148-1.3984-17.672-0.15625-0.98047 0.039062-1.9414 0.32031-2.7969 0.52344-1.5898 0.78516-3.9609-0.45312-6.0312-0.41016-0.67969-0.71094-0.72266-0.85156-0.71094-0.22656 0.023438-0.57031 0.22656-1 0.75-1.5117 1.8438-4.0625 3.1836-6.5078 2.2109-11.57-4.5977-24.801-5.5039-36.934-4.6602zm-0.085937-1.25c12.234-0.84766 25.672 0.054688 37.48 4.75 1.7305 0.6875 3.7422-0.21484 5.0781-1.8438 0.47266-0.57812 1.0977-1.1289 1.8477-1.2031 0.83984-0.078125 1.5234 0.44531 2.043 1.3125 1.5039 2.5078 1.1484 5.3008 0.57031 7.0703-0.25391 0.76172-0.38281 1.5039-0.26953 2.2031 0.73438 4.5781 1.4219 11.164 1.4102 17.875-0.007812 6.6953-0.71094 13.582-2.8008 18.73-0.71094 1.7422-0.25781 4.1094 0.52734 6.0508 0.39062 0.96094 0.65234 2.1172 0.65234 3.4492 0 0.84766-0.26563 1.5742-0.96094 1.9062-0.61719 0.29297-1.3594 0.16016-2.0078-0.070312-1.3438-0.47266-2.9844-1.6055-4.3398-2.6875-0.8125-0.64844-1.8398-0.92969-2.8242-0.73047-7.043 1.4336-17.641 3.1211-28.574 3.9414-10.914 0.81641-22.223 0.76562-30.66-1.3164-0.86719-0.21484-1.8164-0.074219-2.7227 0.29297-1.3945 0.5625-3.1758 0.91406-4.6523 0.19141-1.543-0.75781-2.4727-2.5352-2.4727-5.5898 0-1.957-0.80078-3.1914-2.0859-4.582-0.31641-0.34375-0.66797-0.69922-1.043-1.082-1.1289-1.1484-2.4688-2.5117-3.7305-4.3867-3.4023-5.0586-6.3008-13.863-4.7461-33.297 0.074219-0.92188-0.27344-1.8828-0.88281-2.6602-0.41406-0.52734-0.80469-1.1055-1.0938-1.6797-0.28125-0.56641-0.49219-1.1836-0.48437-1.7734 0.007812-0.63281 0.26953-1.2227 0.875-1.6211 0.55859-0.37109 1.3555-0.53516 2.3594-0.53516 3.8359 0 7.7188 1.5469 10.117 2.8125 0.92188 0.48438 1.9727 0.61328 2.918 0.30078 7.1406-2.3711 18.23-4.9766 30.473-5.8281zm-26.203 51.188c-0.83984-0.38281-1.8086-1.0195-2.918-1.9141-14.176-11.461-11.941-28.863-9.0703-36.148 0.070312-0.26953 0.17969-0.53516 0.36328-0.74219 0.21094-0.24219 0.5-0.38281 0.82812-0.37891 0.29688 0 0.57031 0.11719 0.79297 0.25391 0.22656 0.14062 0.45312 0.33203 0.67578 0.55469 0.875 0.87891 1.9453 2.5 3.0859 4.5391 2.293 4.1055 4.9844 10.125 7.0742 15.93 1.043 2.9062 1.9414 5.7695 2.5625 8.3203 0.61719 2.543 0.97266 4.8164 0.90625 6.5352-0.035156 0.85547-0.17188 1.625-0.48047 2.2305-0.31641 0.625-0.82031 1.0859-1.5391 1.2305-0.67969 0.14062-1.4492-0.027344-2.2812-0.41016zm-10.727-37.902c-0.019532 0.039062-0.039063 0.097656-0.058594 0.17969-0.007813 0.027344-0.015625 0.054687-0.027344 0.082031-2.7852 7.0234-4.9023 23.77 8.6836 34.754 1.0625 0.86328 1.9375 1.4258 2.6484 1.7539 0.71875 0.32812 1.2031 0.38281 1.5117 0.32031 0.27734-0.058593 0.49609-0.21875 0.67578-0.57422 0.19141-0.375 0.3125-0.94141 0.34375-1.7148 0.058594-1.5391-0.26172-3.6797-0.87109-6.1875-0.60938-2.4961-1.4883-5.3164-2.5234-8.1914-2.0703-5.7578-4.7383-11.711-6.9922-15.746-1.1328-2.0312-2.1367-3.5195-2.8789-4.2656-0.17969-0.18359-0.33203-0.30078-0.44531-0.375-0.027344-0.015625-0.046875-0.027344-0.066406-0.035156z"/>
  <path d="m14.758 35.168c0.23047 0 0.44531 0.12891 0.55469 0.33594l1.5039 2.8984c0.097656 0.1875 0.09375 0.41016-0.011718 0.59375l-6.8828 12.121c-0.12891 0.23437-0.39844 0.35547-0.66016 0.30469s-0.46484-0.26172-0.5-0.52734l-0.49219-3.625c-0.015625-0.12891 0.003907-0.25781 0.0625-0.37109l5.8711-11.391c0.10547-0.21094 0.32031-0.33984 0.55469-0.33984zm0 1.9844-5.2227 10.145 0.21484 1.5938 5.8008-10.215z"/>
  <path d="m18.891 43.234c0.21484 0.03125 0.39453 0.17188 0.48047 0.36719l1.5586 3.5703c0.097656 0.22656 0.054687 0.48828-0.11328 0.67188l-9.0156 9.8867c-0.14844 0.16406-0.375 0.23438-0.58984 0.19141-0.21875-0.046875-0.39453-0.20312-0.46484-0.41406l-1.1445-3.3867c-0.070312-0.20703-0.027343-0.4375 0.11719-0.60547l8.6055-10.07c0.14062-0.16406 0.35547-0.24219 0.56641-0.21094zm-7.9922 10.824 0.69141 2.0469 8.0312-8.8047-0.99609-2.2852zm11.512-2.2461c0.19141 0.054688 0.34766 0.20312 0.41406 0.39453l1.0508 3.0195c0.09375 0.26563 0 0.55859-0.23047 0.71875l-9.4297 6.5898c-0.14453 0.10156-0.32422 0.13672-0.49609 0.097656-0.17188-0.035156-0.31641-0.14453-0.40625-0.29687l-1.2344-2.1523c-0.15625-0.26953-0.085937-0.61328 0.16016-0.80469l9.6094-7.4609c0.16016-0.125 0.37109-0.16406 0.5625-0.10547zm-8.9766 8.2188 0.625 1.0898 8.4805-5.9297-0.60937-1.7539zm11.73 0.058594c0.16406 0.082031 0.28125 0.22656 0.32813 0.40234l0.59375 2.2891c0.078124 0.28906-0.0625 0.58984-0.32813 0.71875l-7.6445 3.7539c-0.24609 0.12109-0.54297 0.066406-0.73047-0.13281l-2.0586-2.1992c-0.14062-0.14844-0.19922-0.35547-0.15625-0.55469 0.042969-0.19922 0.17969-0.36719 0.36719-0.44531l9.1094-3.8477c0.16797-0.070313 0.35547-0.0625 0.51953 0.015625zm-8.3164 4.6328 1.1289 1.207 6.7734-3.3281-0.28516-1.0938z"/>
 </g>
<text x="0.0" y="117.5" font-size="5.0" font-weight="bold" font-family="Arbeit Regular, Helvetica, Arial-Unicode, Arial, Sans-serif" fill="#000000">Created by Aeliz</text><text x="0.0" y="122.5" font-size="5.0" font-weight="bold" font-family="Arbeit Regular, Helvetica, Arial-Unicode, Arial, Sans-serif" fill="#000000">from Noun Project</text></svg>