<svg xmlns="http://www.w3.org/2000/svg" version="1.1" viewBox="-5.0 -10.0 110.0 135.0">
 <path d="m50 19.324c-8.1367 0-15.938 3.2344-21.691 8.9844-5.75 5.7539-8.9844 13.555-8.9844 21.691s3.2344 15.938 8.9844 21.691c5.7539 5.75 13.555 8.9844 21.691 8.9844s15.938-3.2344 21.691-8.9844c5.75-5.7539 8.9844-13.555 8.9844-21.691-0.011719-8.1328-3.2461-15.93-8.9961-21.68s-13.547-8.9844-21.68-8.9961zm0 59.223c-7.5703 0-14.832-3.0078-20.188-8.3594-5.3516-5.3555-8.3594-12.617-8.3594-20.188s3.0078-14.832 8.3594-20.188c5.3555-5.3516 12.617-8.3594 20.188-8.3594s14.832 3.0078 20.188 8.3594c5.3516 5.3555 8.3594 12.617 8.3594 20.188-0.007813 7.5703-3.0156 14.824-8.3711 20.176-5.3516 5.3516-12.605 8.3633-20.176 8.3711z"/>
 <path d="m41.609 41.684c0-1.2344-0.49219-2.4219-1.3672-3.2969s-2.0586-1.3672-3.2969-1.3672c-0.050781 0-0.10156 0.011719-0.15234 0.015625l0.90234-0.90234c0.20313-0.19922 0.31641-0.47266 0.31641-0.75391 0.003906-0.28516-0.10938-0.55859-0.30859-0.75781-0.20312-0.19922-0.47266-0.3125-0.75781-0.3125-0.28516 0.003906-0.55469 0.11719-0.75391 0.32031l-6.3047 6.3047c-0.41406 0.41406-0.41406 1.0898 0 1.5039 0.41406 0.41406 1.0898 0.41406 1.5039 0l0.90234-0.90234c0 0.050782-0.015625 0.097656-0.015625 0.15234v-0.003906c0 2.5781 2.0898 4.668 4.668 4.668 2.5742 0 4.6641-2.0898 4.6641-4.668z"/>
 <path d="m50 54.777c-7.793 0.007812-14.109 6.3242-14.121 14.117 0.007813 0.58594 0.48047 1.0547 1.0664 1.0547 0.58203 0 1.0547-0.46875 1.0625-1.0547 0-6.6211 5.3672-11.992 11.992-11.992 6.6211 0 11.992 5.3711 11.992 11.992 0 0.58984 0.47656 1.0664 1.0625 1.0664 0.58594 0 1.0625-0.47656 1.0625-1.0664-0.007813-7.793-6.3242-14.109-14.117-14.117z"/>
 <path d="m70.18 40.934-6.3047-6.3047h-0.003906c-0.19531-0.20312-0.46875-0.31641-0.75-0.32031-0.28516 0-0.55859 0.11328-0.75781 0.3125-0.19922 0.19922-0.3125 0.47266-0.3125 0.75781 0 0.28125 0.11719 0.55469 0.31641 0.75391l0.91016 0.91016c-0.074219-0.003907-0.14844-0.023438-0.22266-0.023438-1.8867 0-3.5898 1.1367-4.3125 2.8789-0.72266 1.7461-0.32031 3.7539 1.0117 5.0859 1.3359 1.3359 3.3438 1.7344 5.0859 1.0117 1.7461-0.72266 2.8828-2.4219 2.8828-4.3125 0-0.078125-0.019531-0.14844-0.023437-0.22266l0.97656 0.97656c0.19922 0.19922 0.46875 0.3125 0.75 0.3125s0.55469-0.11328 0.75391-0.3125c0.19922-0.19922 0.30859-0.46875 0.30859-0.75 0-0.28516-0.10938-0.55469-0.30859-0.75391z"/>
<text x="0.0" y="117.5" font-size="5.0" font-weight="bold" font-family="Arbeit Regular, Helvetica, Arial-Unicode, Arial, Sans-serif" fill="#000000">Created by Leonardo Henrique Martini</text><text x="0.0" y="122.5" font-size="5.0" font-weight="bold" font-family="Arbeit Regular, Helvetica, Arial-Unicode, Arial, Sans-serif" fill="#000000">from Noun Project</text></svg>