<svg xmlns="http://www.w3.org/2000/svg" version="1.1" viewBox="-5.0 -10.0 110.0 135.0">
 <g>
  <path d="m50 10c-22.055 0-40 17.945-40 40s17.945 40 40 40 40-17.945 40-40-17.945-40-40-40zm0 78c-20.953 0-38-17.047-38-38s17.047-38 38-38 38 17.047 38 38-17.047 38-38 38z"/>
  <path d="m36.289 50.477c4.875 0 8.8359-3.9648 8.8359-8.8359s-3.9648-8.8359-8.8359-8.8359c-4.8711 0-8.8359 3.9648-8.8359 8.8359s3.9609 8.8359 8.8359 8.8359zm0-15.676c3.7695 0 6.8359 3.0664 6.8359 6.8359s-3.0664 6.8359-6.8359 6.8359c-3.7695 0-6.8359-3.0664-6.8359-6.8359s3.0664-6.8359 6.8359-6.8359z"/>
  <path d="m63.711 32.801c-4.875 0-8.8359 3.9648-8.8359 8.8359 0 4.8711 3.9648 8.8359 8.8359 8.8359 4.8711 0 8.8359-3.9648 8.8359-8.8359 0-4.8711-3.9609-8.8359-8.8359-8.8359zm0 15.676c-3.7695 0-6.8359-3.0664-6.8359-6.8359s3.0664-6.8359 6.8359-6.8359c3.7695 0 6.8359 3.0664 6.8359 6.8359s-3.0664 6.8359-6.8359 6.8359z"/>
  <path d="m36.566 25.176c-0.34766-0.42969-0.97656-0.5-1.4062-0.14844l-13.098 10.559c-0.42969 0.34766-0.49609 0.97656-0.15234 1.4062 0.19531 0.24609 0.48828 0.37109 0.77734 0.37109 0.21875 0 0.44141-0.070312 0.625-0.22266l13.098-10.562c0.4375-0.34375 0.50391-0.97266 0.15625-1.4023z"/>
  <path d="m63.434 25.176c-0.34766 0.42969-0.28125 1.0586 0.15234 1.4062l13.098 10.562c0.18359 0.14844 0.40625 0.22266 0.625 0.22266 0.29297 0 0.58203-0.125 0.77734-0.37109 0.34766-0.42969 0.28125-1.0586-0.15234-1.4062l-13.094-10.566c-0.42969-0.34766-1.0586-0.28125-1.4062 0.15234z"/>
  <path d="m61.75 57.359h-23.5c-4.7383 0-8.5898 3.8516-8.5898 8.5898s3.8516 8.5898 8.5898 8.5898h23.5c4.7383 0 8.5898-3.8516 8.5898-8.5898s-3.8555-8.5898-8.5898-8.5898zm0 15.18h-23.5c-3.6328 0-6.5898-2.957-6.5898-6.5898 0-3.6328 2.957-6.5898 6.5898-6.5898h23.5c3.6328 0 6.5898 2.957 6.5898 6.5898 0 3.6328-2.957 6.5898-6.5898 6.5898z"/>
 </g>
<text x="0.0" y="117.5" font-size="5.0" font-weight="bold" font-family="Arbeit Regular, Helvetica, Arial-Unicode, Arial, Sans-serif" fill="#000000">Created by Made</text><text x="0.0" y="122.5" font-size="5.0" font-weight="bold" font-family="Arbeit Regular, Helvetica, Arial-Unicode, Arial, Sans-serif" fill="#000000">from Noun Project</text></svg>