<svg xmlns="http://www.w3.org/2000/svg" xmlns:xlink="http://www.w3.org/1999/xlink" version="1.1" x="0px" y="0px" viewBox="0 0 100 125" style="enable-background:new 0 0 100 100;" xml:space="preserve"><path d="M36.71,17.96c0,4.39,3.56,7.96,7.96,7.96c4.39,0,7.96-3.56,7.96-7.96c0-4.39-3.56-7.96-7.96-7.96  C40.27,10,36.71,13.56,36.71,17.96z"/><path d="M80,82.21L67.31,60.25c-0.95-1.65-2.7-2.6-4.49-2.6c-0.11,0-0.19,0-0.3,0.03H62.5c-0.16-0.03-0.35-0.03-0.51-0.03h-9.36  v-4.87c-0.16-0.14-0.3-0.27-0.43-0.43l-8.14-8.11c-0.51-0.54-0.51-1.38,0-1.92c0.54-0.51,1.41-0.51,1.92,0l7.01,7.01h16.91  c2.16,0,3.92-1.76,3.92-3.92c0-2.14-1.76-3.92-3.92-3.92H54.27l-1.65-1.65v-2.41c0-2.19-0.89-4.19-2.33-5.63  c-1.43-1.43-3.44-2.33-5.63-2.33c-4.38,0-7.95,3.57-7.95,7.95v22.67c0,0.54,0.05,1.05,0.16,1.54c0.7,3.65,3.95,6.41,7.79,6.41h15.15  l11.2,19.37c0.97,1.65,2.7,2.6,4.49,2.6c0.89,0,1.79-0.24,2.6-0.7C80.57,87.86,81.43,84.67,80,82.21z"/><path d="M27.36,76.95c0.08,0.43,0.25,0.83,0.46,1.2c0.03,0.06,0.06,0.12,0.09,0.17c0.21,0.34,0.48,0.64,0.78,0.9  c0.06,0.05,0.11,0.1,0.18,0.14c0.31,0.24,0.66,0.44,1.03,0.59c0.06,0.02,0.12,0.04,0.18,0.06c0.4,0.13,0.81,0.22,1.25,0.22  c0,0,0,0,0.01,0c0,0,0,0,0,0c0,0,0,0,0,0h26.08c2.24,0,4.06-1.82,4.06-4.06c0-2.24-1.82-4.06-4.06-4.06H34.7l-7.34-38.58  c-0.42-2.2-2.56-3.64-4.74-3.23c-2.2,0.42-3.65,2.54-3.23,4.74l7.97,41.88C27.35,76.93,27.36,76.94,27.36,76.95z"/><text x="0" y="115" fill="#000000" font-size="5px" font-weight="bold" font-family="'Helvetica Neue', Helvetica, Arial-Unicode, Arial, Sans-serif">Created by ainul muttaqin</text><text x="0" y="120" fill="#000000" font-size="5px" font-weight="bold" font-family="'Helvetica Neue', Helvetica, Arial-Unicode, Arial, Sans-serif">from the Noun Project</text></svg>