<svg xmlns="http://www.w3.org/2000/svg" version="1.1" viewBox="-5.0 -10.0 110.0 135.0">
 <path d="m35.461 35.961c-1.1758 0.49609-2.4375 0.74219-3.7109 0.72266-0.32422 0-0.65625-0.015625-0.98828-0.042969-3.9922-0.34766-6.832-2.5742-6.6094-5.1758l0.003906-0.003906c0.035156-0.41016 0.23047-0.79297 0.54688-1.0625 0.32031-0.26563 0.73047-0.39453 1.1445-0.35938 0.41406 0.035157 0.79297 0.23438 1.0625 0.55078 0.26562 0.32031 0.39453 0.73047 0.35547 1.1445-0.03125 0.375 1.2109 1.5703 3.7656 1.793 1.0742 0.11719 2.1562-0.027344 3.1602-0.42188 0.60547-0.26953 0.84766-0.57031 0.85938-0.69922 0.03125-0.41406 0.23047-0.79688 0.54688-1.0664 0.32031-0.26562 0.73047-0.39453 1.1445-0.35156 0.41406 0.035157 0.79297 0.23047 1.0625 0.55078 0.26562 0.31641 0.39453 0.72656 0.35937 1.1406-0.22266 1.5078-1.2656 2.7734-2.7031 3.2812zm38.016-0.80078 0.003907 0.003906c1.3281-0.75 2.1328-2.1758 2.0938-3.7031-0.074219-0.85938-0.83203-1.4922-1.6914-1.418-0.85937 0.074219-1.4961 0.83203-1.4219 1.6914 0.011718 0.12891-0.17578 0.46875-0.72656 0.83594-1.8828 1.0859-4.1523 1.2852-6.1992 0.53516-0.60547-0.26953-0.84766-0.57031-0.85938-0.69922v0.003906c-0.03125-0.41406-0.22656-0.80078-0.54297-1.0664-0.32031-0.26953-0.73047-0.39844-1.1445-0.35547-0.41406 0.035157-0.79688 0.23047-1.0625 0.55078-0.26562 0.31641-0.39844 0.72656-0.35938 1.1367 0.22266 1.5117 1.2617 2.7773 2.6992 3.2852 1.1758 0.49609 2.4414 0.73828 3.7148 0.72266 0.32812 0 0.65625-0.015625 0.98828-0.042969h-0.003906c1.6055-0.11328 3.1562-0.62109 4.5156-1.4766zm-13.727-20.16c-0.28516-0.45703-0.78906-0.73438-1.3242-0.73438h-3.2617c-0.86328 0-1.5625 0.69922-1.5625 1.5625s0.69922 1.5625 1.5625 1.5625h0.76563l-2.1719 4.4805c-0.23437 0.48438-0.20312 1.0586 0.082032 1.5117 0.28516 0.45703 0.78516 0.73438 1.3242 0.73438h5.9102c0.86328 0 1.5625-0.69922 1.5625-1.5625 0-0.86328-0.69922-1.5625-1.5625-1.5625h-3.4141l2.168-4.4805c0.23828-0.48438 0.20703-1.0547-0.078125-1.5117zm12.562 3.2578h-0.003906c-0.28516-0.45703-0.78516-0.73437-1.3242-0.73437h-2.4727c-0.86328-0.003907-1.5664 0.69141-1.5703 1.5547-0.007812 0.86328 0.6875 1.5664 1.5508 1.5703l-1.3867 2.8594c-0.23438 0.48438-0.20312 1.0547 0.082031 1.5117 0.28516 0.45312 0.78516 0.73047 1.3242 0.73047h4.4844c0.86328 0 1.5625-0.69922 1.5625-1.5625s-0.69922-1.5625-1.5625-1.5625h-1.9922l1.3867-2.8594v0.003906c0.23438-0.48438 0.20312-1.0547-0.082031-1.5117zm5.0664-2.293h0.76562l-2.1719 4.4805c-0.23438 0.48438-0.20312 1.0547 0.082032 1.5117 0.28516 0.45703 0.78516 0.73438 1.3242 0.73438h5.9102c0.86328 0 1.5625-0.69922 1.5625-1.5625 0-0.86328-0.69922-1.5625-1.5625-1.5625h-3.418l2.1719-4.4805v-0.003907c0.23438-0.48438 0.20312-1.0547-0.082031-1.5117-0.28516-0.45312-0.78516-0.73047-1.3242-0.73047h-3.2578c-0.86328 0-1.5625 0.69922-1.5625 1.5625 0 0.86328 0.69922 1.5625 1.5625 1.5625zm9.8359 8.7773c-0.48438-0.71484-1.457-0.89844-2.1719-0.41406-0.71094 0.48438-0.89844 1.457-0.41016 2.1719 7.8281 11.543 9.3906 26.23 4.1602 39.16-5.2266 12.93-16.559 22.406-30.211 25.262-13.652 2.8594-27.828-1.2773-37.805-11.027-9.9766-9.75-14.434-23.828-11.891-37.543 2.543-13.715 11.758-25.258 24.566-30.781 12.809-5.5234 27.523-4.2969 39.246 3.2656 0.72266 0.46875 1.6914 0.26172 2.1602-0.46484 0.46875-0.72266 0.25781-1.6914-0.46484-2.1602-12.598-8.1289-28.418-9.4453-42.184-3.5117-13.77 5.9375-23.672 18.348-26.406 33.086-2.7344 14.742 2.0586 29.879 12.781 40.355 10.723 10.48 25.965 14.926 40.641 11.852 14.672-3.0703 26.852-13.258 32.469-27.156 5.6172-13.902 3.9375-29.688-4.4805-42.094zm-55.828 50.121c0-8.0156 8.3516-14.539 18.613-14.539 10.266 0 18.613 6.5234 18.613 14.539 0 0.41406-0.16406 0.8125-0.45703 1.1055s-0.69141 0.45703-1.1055 0.45703h-34.102c-0.86328 0-1.5625-0.69922-1.5625-1.5625zm3.2695-1.5625h30.688c-1.0352-5.5547-7.5234-9.8516-15.344-9.8516-7.8203 0.003906-14.309 4.2969-15.344 9.8516z"/>
<text x="0.0" y="117.5" font-size="5.0" font-weight="bold" font-family="Arbeit Regular, Helvetica, Arial-Unicode, Arial, Sans-serif" fill="#000000">Created by Pranaja</text><text x="0.0" y="122.5" font-size="5.0" font-weight="bold" font-family="Arbeit Regular, Helvetica, Arial-Unicode, Arial, Sans-serif" fill="#000000">from Noun Project</text></svg>