<svg xmlns="http://www.w3.org/2000/svg" data-name="Layer 1" viewBox="0 0 100 125" x="0px" y="0px"><path d="m67.46,51.52c-1.28,0-2.48.5-3.38,1.4l-2.54,2.54v-22.66c0-1.28-.5-2.48-1.4-3.38-.92-.92-2.12-1.39-3.43-1.4-.62,0-1.21.14-1.75.37v-1.17c0-1.28-.5-2.48-1.4-3.38-.9-.9-2.1-1.4-3.38-1.4-2.63,0-4.78,2.14-4.78,4.78v1.15c-.56-.23-1.17-.35-1.8-.35-2.63,0-4.77,2.13-4.78,4.76-.56-.23-1.17-.35-1.8-.35-2.63,0-4.78,2.14-4.78,4.78v25.71c0,8.08,6.57,14.65,14.65,14.65,4.05,0,7.82-1.62,10.61-4.55,0,0,0,0,0,0l13.33-13.33c1.86-1.86,1.86-4.89,0-6.76-.9-.9-2.1-1.4-3.38-1.4Zm1.27,6.05l-13.33,13.33s0,.01-.01.02c0,0-.01,0-.02.01-2.23,2.36-5.24,3.65-8.48,3.65-6.43,0-11.66-5.23-11.66-11.66v-25.71c0-.99.81-1.8,1.8-1.8.48,0,.93.19,1.27.53.34.34.53.79.53,1.27v10.95c0,.82.67,1.49,1.49,1.49s1.49-.67,1.49-1.49v-15.35c0-.99.81-1.8,1.8-1.8.48,0,.93.19,1.27.53.34.34.53.79.53,1.27v15.35c0,.82.67,1.49,1.49,1.49s1.49-.67,1.49-1.49v-20.93c0-.99.81-1.8,1.8-1.8.48,0,.93.19,1.27.53.34.34.53.79.53,1.27v20.93c0,.82.67,1.49,1.49,1.49,0,0,0,0,0,0s0,0,0,0c.82,0,1.49-.67,1.49-1.49v-15.31c0-1,.8-1.83,1.77-1.84.49-.01.95.18,1.29.53.34.34.53.79.53,1.27v23.33c0,1.1.66,2.08,1.67,2.5,1.02.42,2.17.19,2.95-.59l3.01-3.01c.68-.68,1.86-.68,2.54,0,.7.7.7,1.84,0,2.54Z"/><path d="m74.18,19.54c-2.03-3.52-5.83-5.71-9.9-5.71h-28.58c-4.07,0-7.86,2.19-9.9,5.71l-14.29,24.75c-2.03,3.52-2.03,7.9,0,11.43l14.29,24.75c2.03,3.52,5.83,5.71,9.9,5.71h28.58c4.07,0,7.86-2.19,9.9-5.71l14.29-24.75c2.03-3.52,2.03-7.9,0-11.43l-14.29-24.75Zm11.71,34.69l-14.29,24.75c-1.5,2.6-4.31,4.22-7.31,4.22h-28.58c-3.01,0-5.81-1.62-7.31-4.22l-14.29-24.75c-1.5-2.6-1.5-5.84,0-8.45l14.29-24.75c1.5-2.6,4.31-4.22,7.31-4.22h28.58c3.01,0,5.81,1.62,7.31,4.22l14.29,24.75c1.5,2.6,1.5,5.84,0,8.45Z"/><text x="0" y="115" fill="#000000" font-size="5px" font-weight="bold" font-family="'Helvetica Neue', Helvetica, Arial-Unicode, Arial, Sans-serif">Created by Uswa KDT</text><text x="0" y="120" fill="#000000" font-size="5px" font-weight="bold" font-family="'Helvetica Neue', Helvetica, Arial-Unicode, Arial, Sans-serif">from the Noun Project</text></svg>