<svg xmlns="http://www.w3.org/2000/svg" version="1.0" viewBox="0 0 597 1055" preserveAspectRatio="xMidYMid meet" x="0px" y="0px"><g transform="translate(0.000000,844.000000) scale(0.100000,-0.100000)" fill="#000000" stroke="none"><path d="M492 8420 c-117 -31 -206 -83 -297 -175 -93 -92 -145 -181 -175 -301 -20 -76 -20 -127 -20 -3724 0 -3597 0 -3648 20 -3724 30 -120 82 -209 175 -301 92 -93 181 -145 301 -175 76 -20 121 -20 2489 -20 2368 0 2413 0 2489 20 120 30 209 82 301 175 93 92 145 181 175 301 20 76 20 127 20 3724 0 3597 0 3648 -20 3724 -30 120 -82 209 -175 301 -92 93 -181 145 -301 175 -76 20 -120 20 -2493 19 -2344 0 -2418 -1 -2489 -19z m4978 -227 c111 -46 207 -142 253 -253 l22 -55 0 -3665 0 -3665 -22 -55 c-30 -72 -86 -145 -148 -192 -28 -21 -75 -48 -105 -61 l-55 -22 -2430 0 -2430 0 -55 22 c-111 46 -207 142 -253 253 l-22 55 -3 3639 c-2 3254 0 3646 13 3700 29 111 104 209 206 269 101 59 -65 56 2564 54 l2410 -2 55 -22z"/><path d="M2952 7768 c-7 -7 -12 -24 -12 -38 0 -53 57 -69 86 -25 15 23 15 27 0 50 -18 27 -54 33 -74 13z"/><path d="M480 7350 c-20 -20 -20 -33 -20 -3135 0 -3102 0 -3115 20 -3135 20 -20 33 -20 2495 -20 2462 0 2475 0 2495 20 20 20 20 33 20 3135 0 3102 0 3115 -20 3135 -20 20 -33 20 -2495 20 -2462 0 -2475 0 -2495 -20z m4900 -3135 l0 -3045 -2405 0 -2405 0 0 3045 0 3045 2405 0 2405 0 0 -3045z"/><path d="M2920 861 c-181 -55 -248 -272 -130 -421 18 -22 55 -51 87 -66 225 -110 459 124 349 349 -55 113 -189 173 -306 138z m171 -58 c78 -40 112 -93 117 -182 4 -74 -9 -113 -57 -164 -47 -51 -96 -70 -172 -65 -89 5 -142 39 -181 117 -46 90 -33 175 35 248 73 76 165 93 258 46z"/><path d="M2880 615 l0 -115 115 0 115 0 0 115 0 115 -115 0 -115 0 0 -115z m210 0 l0 -95 -95 0 -95 0 0 95 0 95 95 0 95 0 0 -95z"/></g><text x="0" y="859" fill="#000000" font-size="5px" font-weight="bold" font-family="'Helvetica Neue', Helvetica, Arial-Unicode, Arial, Sans-serif">Created by Vocal School</text><text x="0" y="864" fill="#000000" font-size="5px" font-weight="bold" font-family="'Helvetica Neue', Helvetica, Arial-Unicode, Arial, Sans-serif">from the Noun Project</text></svg>