<svg xmlns="http://www.w3.org/2000/svg" viewBox="0 0 64 80" x="0px" y="0px"><g data-name="14-Toilet"><path d="M51,4H39.10254A13.61152,13.61152,0,0,0,24.89746,4H13a3.00328,3.00328,0,0,0-3,3v4a1,1,0,0,0,1,1h1V25a3.00328,3.00328,0,0,0,3,3h2.12653a20.6215,20.6215,0,0,0,.78778,2H15a3,3,0,0,0,0,6h.04474A18.37558,18.37558,0,0,0,24.978,51.62012C24.66992,56,21.25488,60.33105,21.21875,60.376A1,1,0,0,0,22,62H42a.99991.99991,0,0,0,.78076-1.625c-.03613-.04492-3.45166-4.36328-3.75879-8.75488A18.37451,18.37451,0,0,0,48.95526,36H49a3,3,0,0,0,0-6H46.08594a20.611,20.611,0,0,0,.7876-2H49a3.00328,3.00328,0,0,0,3-3V12h1a1,1,0,0,0,1-1V7A3.00328,3.00328,0,0,0,51,4ZM12,7a1.0013,1.0013,0,0,1,1-1h9.2157a18.12585,18.12585,0,0,0-3.23718,4H12Zm3,19a1.0013,1.0013,0,0,1-1-1V12h3.91406A21.73955,21.73955,0,0,0,16,21a22.39276,22.39276,0,0,0,.56976,5ZM40.08057,60H23.91943a19.02082,19.02082,0,0,0,3.01947-8H37.0611A19.02082,19.02082,0,0,0,40.08057,60ZM37.79431,50H26.20551a16.09728,16.09728,0,0,1-9.15509-14H46.94958A16.09556,16.09556,0,0,1,37.79431,50ZM50,33a1.001,1.001,0,0,1-1,1H15a1,1,0,0,1,0-2H49A1.0013,1.0013,0,0,1,50,33ZM24.80768,30A15.07761,15.07761,0,0,1,22,21c0-7.16846,4.48584-13,10-13s10,5.83154,10,13a15.07761,15.07761,0,0,1-2.80768,9Zm16.78674,0A17.45547,17.45547,0,0,0,44,21c0-8.271-5.3833-15-12-15S20,12.729,20,21a17.45547,17.45547,0,0,0,2.40558,9H20.139A19.59379,19.59379,0,0,1,18,21c0-9.374,6.28027-17,14-17s14,7.626,14,17a19.59677,19.59677,0,0,1-2.13855,9ZM50,25a1.0013,1.0013,0,0,1-1,1H47.43024A22.39587,22.39587,0,0,0,48,21a21.73955,21.73955,0,0,0-1.91406-9H50Zm2-15H45.02148A18.12585,18.12585,0,0,0,41.7843,6H51a1.0013,1.0013,0,0,1,1,1Z"/></g><text x="0" y="79" fill="#000000" font-size="5px" font-weight="bold" font-family="'Helvetica Neue', Helvetica, Arial-Unicode, Arial, Sans-serif">Created by Nawicon</text><text x="0" y="84" fill="#000000" font-size="5px" font-weight="bold" font-family="'Helvetica Neue', Helvetica, Arial-Unicode, Arial, Sans-serif">from the Noun Project</text></svg>