<svg xmlns="http://www.w3.org/2000/svg" xmlns:xlink="http://www.w3.org/1999/xlink" version="1.1" x="0px" y="0px" viewBox="0 0 100 125" style="enable-background:new 0 0 100 100;" xml:space="preserve"><g><path d="M83.56,66.96h-1.88v-1.11c0-0.79-0.65-1.44-1.44-1.44h-4.5c-0.79,0-1.44,0.65-1.44,1.44v1.11h-2.1   c0.38-0.46,0.61-1.04,0.61-1.68v-12c0-1.48-1.2-2.68-2.68-2.68h-1.88v-1.11c0-0.79-0.65-1.44-1.44-1.44h-4.5   c-0.79,0-1.44,0.65-1.44,1.44v1.11H57.1v-1.11c0-0.79-0.65-1.44-1.44-1.44h-4.5c-0.79,0-1.44,0.65-1.44,1.44v1.11h-1.88   c-0.9,0-1.7,0.45-2.18,1.13c-0.49-0.68-1.28-1.13-2.18-1.13H41.6v-1.11c0-0.79-0.65-1.44-1.44-1.44h-4.5   c-0.79,0-1.44,0.65-1.44,1.44v1.11h-3.77v-1.11c0-0.79-0.65-1.44-1.44-1.44h-4.5c-0.79,0-1.44,0.65-1.44,1.44v1.11h-1.88   c-1.48,0-2.68,1.2-2.68,2.68v12c0,0.64,0.23,1.22,0.61,1.68h-2.1v-1.11c0-0.79-0.65-1.44-1.44-1.44h-4.5   c-0.79,0-1.44,0.65-1.44,1.44v1.11H7.76c-1.48,0-2.68,1.2-2.68,2.68v12c0,1.48,1.2,2.68,2.68,2.68h22.29c0.93,0,1.75-0.48,2.23-1.2   c0.48,0.72,1.3,1.2,2.23,1.2H56.8c0.93,0,1.75-0.48,2.23-1.2c0.48,0.72,1.3,1.2,2.23,1.2h22.29c1.48,0,2.68-1.2,2.68-2.68v-12   C86.24,68.16,85.04,66.96,83.56,66.96z M75.3,65.85c0-0.24,0.2-0.44,0.44-0.44h4.5c0.24,0,0.44,0.2,0.44,0.44v1.11H75.3V65.85z    M61.87,49.49c0-0.24,0.2-0.44,0.44-0.44h4.5c0.24,0,0.44,0.2,0.44,0.44v1.11h-5.37V49.49z M50.72,49.49c0-0.24,0.2-0.44,0.44-0.44   h4.5c0.24,0,0.44,0.2,0.44,0.44v1.11h-5.37V49.49z M47.84,51.59h22.29c0.93,0,1.68,0.75,1.68,1.68v12c0,0.93-0.75,1.68-1.68,1.68   h-8.86H56.8h-8.96c-0.93,0-1.68-0.75-1.68-1.68v-12C46.16,52.35,46.92,51.59,47.84,51.59z M58.88,67.96h0.33   c-0.05,0.07-0.11,0.13-0.16,0.2C58.99,68.09,58.93,68.03,58.88,67.96z M45.77,66.96h-0.22c0.04-0.04,0.08-0.09,0.11-0.13   C45.69,66.87,45.73,66.92,45.77,66.96z M35.22,49.49c0-0.24,0.2-0.44,0.44-0.44h4.5c0.24,0,0.44,0.2,0.44,0.44v1.11h-5.37V49.49z    M24.07,49.49c0-0.24,0.2-0.44,0.44-0.44h4.5c0.24,0,0.44,0.2,0.44,0.44v1.11h-5.37V49.49z M19.51,65.28v-12   c0-0.93,0.75-1.68,1.68-1.68h22.29c0.93,0,1.68,0.75,1.68,1.68v12c0,0.93-0.75,1.68-1.68,1.68H21.19   C20.26,66.96,19.51,66.21,19.51,65.28z M32.12,67.96h0.33c-0.05,0.07-0.11,0.13-0.16,0.2C32.23,68.09,32.18,68.03,32.12,67.96z    M10.64,65.85c0-0.24,0.2-0.44,0.44-0.44h4.5c0.24,0,0.44,0.2,0.44,0.44v1.11h-5.37V65.85z M31.73,81.65   c0,0.93-0.75,1.68-1.68,1.68H7.76c-0.93,0-1.68-0.75-1.68-1.68v-12c0-0.93,0.75-1.68,1.68-1.68h22.29c0.93,0,1.68,0.75,1.68,1.68   V81.65z M58.49,81.65c0,0.93-0.75,1.68-1.68,1.68H34.52c-0.93,0-1.68-0.75-1.68-1.68v-12c0-0.93,0.75-1.68,1.68-1.68H56.8   c0.93,0,1.68,0.75,1.68,1.68V81.65z M85.24,81.65c0,0.93-0.75,1.68-1.68,1.68H61.27c-0.93,0-1.68-0.75-1.68-1.68v-12   c0-0.93,0.75-1.68,1.68-1.68h22.29c0.93,0,1.68,0.75,1.68,1.68V81.65z"/><path d="M94.47,30.68c-0.4-0.6-1-1-1.7-1.14l-1.85-0.37l0.22-1.08c0.16-0.78-0.35-1.54-1.13-1.69L85.6,25.5   c-0.78-0.15-1.54,0.35-1.69,1.13l-0.22,1.08l-3.7-0.74l0.22-1.08c0.16-0.78-0.35-1.54-1.13-1.69l-4.41-0.89   c-0.78-0.15-1.54,0.35-1.69,1.13l-0.22,1.08l-1.84-0.37c-1.45-0.29-2.87,0.65-3.16,2.1l-2.37,11.77c-0.29,1.45,0.65,2.87,2.1,3.16   c0,0,21.87,4.44,22.38,4.44c0.52,0,1.03-0.15,1.48-0.45c0.6-0.4,1-1,1.14-1.7l2.37-11.77C95.01,31.99,94.87,31.27,94.47,30.68z    M84.89,26.82c0.05-0.24,0.28-0.39,0.52-0.34l4.41,0.89c0.24,0.05,0.39,0.28,0.34,0.52l-0.22,1.08l-5.27-1.06L84.89,26.82z    M73.96,24.62c0.05-0.24,0.28-0.39,0.52-0.34l4.41,0.89c0.11,0.02,0.21,0.09,0.28,0.19c0.06,0.1,0.09,0.21,0.06,0.33l-0.22,1.08   l-5.27-1.06L73.96,24.62z M93.89,32.49l-2.37,11.77c-0.09,0.44-0.34,0.82-0.72,1.07c-0.37,0.25-0.82,0.34-1.26,0.25l-21.85-4.39   c-0.91-0.18-1.5-1.07-1.32-1.98l2.37-11.77c0.16-0.8,0.88-1.5,1.65-1.35c0.58,0.11,22.18,4.42,22.18,4.42   c0.44,0.09,0.82,0.34,1.07,0.72C93.89,31.6,93.97,32.05,93.89,32.49z"/><path d="M23.09,36.86c0.14,0.7,0.55,1.31,1.14,1.7c0.45,0.3,0.96,0.45,1.48,0.45c0.18,0,0.36-0.02,0.53-0.05l21.85-4.39   c1.45-0.29,2.39-1.71,2.1-3.16l-2.37-11.77c-0.14-0.7-0.55-1.31-1.14-1.7c-0.6-0.4-1.31-0.54-2.01-0.4l-1.84,0.37l-0.22-1.08   c-0.16-0.78-0.91-1.28-1.69-1.13l-4.41,0.89c-0.78,0.16-1.28,0.92-1.13,1.69l0.22,1.08l-3.7,0.74l-0.22-1.08   c-0.16-0.78-0.91-1.28-1.69-1.13l-4.41,0.89c-0.78,0.16-1.28,0.92-1.13,1.69l0.22,1.08l-1.84,0.37c-1.45,0.29-2.39,1.71-2.1,3.16   L23.09,36.86z M36.7,17.57l4.41-0.89c0.03-0.01,0.06-0.01,0.09-0.01c0.2,0,0.39,0.14,0.43,0.35l0.22,1.08l-5.27,1.06l-0.22-1.08   C36.31,17.85,36.46,17.61,36.7,17.57z M25.65,21.36l-0.22-1.08c-0.05-0.24,0.11-0.47,0.34-0.52l4.41-0.89   c0.03-0.01,0.06-0.01,0.09-0.01c0.2,0,0.39,0.14,0.43,0.35l0.22,1.08L25.65,21.36z M23.02,22.91c0,0,21.61-4.32,22.18-4.42   c0.32-0.06,0.65,0.1,0.93,0.28c0.37,0.25,0.63,0.63,0.72,1.07l2.37,11.77c0.18,0.91-0.41,1.8-1.32,1.98l-21.85,4.39   c-0.44,0.09-0.89,0-1.26-0.25c-0.37-0.25-0.63-0.63-0.72-1.07L21.7,24.89C21.52,23.98,22.11,23.09,23.02,22.91z"/></g><text x="0" y="115" fill="#000000" font-size="5px" font-weight="bold" font-family="'Helvetica Neue', Helvetica, Arial-Unicode, Arial, Sans-serif">Created by Visual Glow</text><text x="0" y="120" fill="#000000" font-size="5px" font-weight="bold" font-family="'Helvetica Neue', Helvetica, Arial-Unicode, Arial, Sans-serif">from the Noun Project</text></svg>