<svg xmlns="http://www.w3.org/2000/svg" version="1.1" viewBox="-5.0 -10.0 110.0 135.0">
 <g>
  <path d="m66.875 89.641h-6.7344l-2.2812-10.938h-15.688l-2.2812 10.938h-6.7812c-0.85938 0-1.5625 0.70312-1.5625 1.5625s0.70312 1.5625 1.5625 1.5625h33.781c0.85938 0 1.5625-0.70312 1.5625-1.5625s-0.70312-1.5625-1.5625-1.5625z"/>
  <path d="m87.75 8.7969h-75.5c-3.25 0-5.9062 2.6719-5.9062 5.9219v54.938c0 3.25 2.6562 5.9062 5.9062 5.9062h75.5c3.25 0 5.9062-2.6562 5.9062-5.9062v-54.938c0-3.25-2.6562-5.9219-5.9062-5.9219zm-74.641 17.578 5.4375 9.8281h-3.5781l-1.8594-3.375zm11.562 19.812h20.125c0.85938 0 1.5625 0.70312 1.5625 1.5625s-0.70312 1.5625-1.5625 1.5625h-20.562c-0.28125 0-0.5625-0.078125-0.8125-0.21875l-4.7656-2.8906c-0.46875-0.28125-0.75-0.79688-0.75-1.3438s0.28125-1.0469 0.75-1.3281l4.7656-2.8906c0.25-0.15625 0.53125-0.23438 0.8125-0.23438h20.562c0.85938 0 1.5625 0.70312 1.5625 1.5625s-0.70312 1.5625-1.5625 1.5625h-20.125l-2.2031 1.3281zm62.125 22.531h-73.688v-3.4219h73.688zm0-6.5469h-73.688v-8.3594h35.391c0.75 4.7188 4.8438 8.3594 9.7656 8.3594s9.0312-3.6406 9.7812-8.3594h4.2812c0.48438 0 0.875-0.39062 0.875-0.875v-2.2969l2.6094-6.5156c0.125-0.3125 0.0625-0.65625-0.15625-0.90625-1.3906-1.5625-7.25-7.0156-21.719-7.0156 0 0-8.5781-9.3906-22.047-10.391h-7.5625l1.7188 3.125h5.7188c8.125 0.64062 14.344 4.7031 17.516 7.2656h-22.781l-5.75-10.391h-7.6406v-10.156h73.688zm-35.312-9.9219c0-3.7344 3.0469-6.7812 6.7812-6.7812s6.7812 3.0469 6.7812 6.7812-3.0312 6.7969-6.7812 6.7969-6.7812-3.0469-6.7812-6.7969zm14.781-8.6094c0-0.85938 0.70312-1.5625 1.5625-1.5625h3.5312c0.54688 0.46875 0.9375 0.85938 1.1719 1.1406 0.21875 0.25 0.28125 0.59375 0.15625 0.90625l-0.4375 1.0781h-4.4219c-0.85938 0-1.5625-0.6875-1.5625-1.5625z"/>
  <path d="m58.266 49.391c-1.5781 0-2.875 1.2812-2.875 2.875s1.2812 2.875 2.875 2.875 2.875-1.2812 2.875-2.875-1.2812-2.875-2.875-2.875z"/>
  <path d="m68.172 24.5h13.125c0.85938 0 1.5625-0.70312 1.5625-1.5625s-0.70312-1.5625-1.5625-1.5625h-13.125c-0.85938 0-1.5625 0.70312-1.5625 1.5625s0.70312 1.5625 1.5625 1.5625z"/>
  <path d="m81.312 27.109h-5.9688c-0.85938 0-1.5625 0.70312-1.5625 1.5625s0.70312 1.5625 1.5625 1.5625h5.9688c0.85938 0 1.5625-0.70312 1.5625-1.5625s-0.70312-1.5625-1.5625-1.5625z"/>
 </g>
<text x="0.0" y="117.5" font-size="5.0" font-weight="bold" font-family="Arbeit Regular, Helvetica, Arial-Unicode, Arial, Sans-serif" fill="#000000">Created by Andi Nur Abdillah</text><text x="0.0" y="122.5" font-size="5.0" font-weight="bold" font-family="Arbeit Regular, Helvetica, Arial-Unicode, Arial, Sans-serif" fill="#000000">from Noun Project</text></svg>