<svg xmlns="http://www.w3.org/2000/svg" version="1.1" viewBox="-5.0 -10.0 110.0 135.0">
 <path d="m45.359 3.125c6.0469 0 10.949 4.8984 10.949 10.938s-4.9023 10.938-10.949 10.938c-6.0508 0-10.953-4.8984-10.953-10.938s4.9023-10.938 10.953-10.938zm4.6914 10.938c0-2.5898-2.1016-4.6875-4.6914-4.6875-2.5938 0-4.6953 2.0977-4.6953 4.6875s2.1016 4.6875 4.6953 4.6875c2.5898 0 4.6914-2.0977 4.6914-4.6875z" fill-rule="evenodd"/>
 <path d="m78.727 53.527c4.5977-0.28906 9.1797-4.125 8.7461-9.7344-0.42969-5.5234-5.4219-8.668-9.9766-8.3789l-9.1875 0.57813-18.57-8.5469c-3.0078-1.3867-6.6055-1.1406-9.4023 0.74219l-21.195 13.27c-0.10156 0.0625-0.19922 0.12891-0.29688 0.19531-1.7617 1.2461-3.1094 3.1211-3.6211 5.3828l-2.4922 11.039c-1.25 5.5391 2.8008 10.008 7.4062 10.855 4.4844 0.82812 9.7383-1.6836 10.934-6.9727l1.668-7.3984 3.5742-2.1211v3.8203l-8.1562 16.352-10.723 8.2305c-0.125 0.097656-0.25 0.19922-0.37109 0.30859-3.9727 3.5742-3.9922 9.6719-0.03125 13.27 3.5234 3.1992 8.9805 3.2734 12.598 0.22266l12.133-9.3711c0.125-0.097656 0.24219-0.19531 0.35938-0.30078 0.83203-0.75 1.5391-1.6562 2.0586-2.6992l5.7734-11.57 13.68 6.8633 5.5781 14.285c2.3438 4.5664 7.7812 6.0391 12.023 4.3281 4.5352-1.832 7.3555-7.2227 4.8516-12.297-0.035157-0.066406-0.070313-0.13281-0.10547-0.19922l-6.9453-16.879c-0.92188-1.793-2.3867-3.1641-4.0742-4.0117l-19.875-9.9727v-2.8008l7.3516 3.3867c1.4648 0.67578 3.0703 0.96094 4.6523 0.86328zm-13.672-5.8008-16.227-7.4727v16.418l23.324 11.703c0.58984 0.29688 1.0586 0.75781 1.3359 1.3203l6.9844 16.949c0.70312 1.4258-0.003906 3.0977-1.582 3.7344-1.3516 0.54297-2.8984 0.15625-3.7578-0.85938-0.050781-0.058593-0.09375-0.11719-0.13672-0.17578-0.089844-0.125-0.16797-0.25391-0.23828-0.39453l-6.5586-16.09-21.047-10.559-8.5742 17.184c-0.15625 0.3125-0.375 0.59766-0.64453 0.83984l-12.27 9.4766c-0.14844 0.13672-0.3125 0.25391-0.48047 0.35547-0.13281 0.078125-0.27344 0.14844-0.41406 0.20703-1.1602 0.48438-2.5781 0.29297-3.5312-0.57031-1.2188-1.1094-1.2148-2.8984 0.011719-4l11.863-9.1094 9.457-18.957v-16.277l-15.344 9.1094-2.2617 10.023c-0.019532 0.078125-0.039063 0.15625-0.066406 0.23438-0.45313 1.3945-2.0195 2.2656-3.625 1.9688-1.6914-0.3125-2.7852-1.8047-2.4414-3.3359l2.4961-11.039c0.097656-0.43359 0.30859-0.83984 0.60547-1.1836 0.15625-0.17578 0.33203-0.33594 0.52734-0.47656l21.309-13.336c0.95703-0.67969 2.2656-0.79297 3.3516-0.29297l20.004 9.2109 10.77-0.68359h0.035157l0.042968-0.003907c1.6914-0.066406 3.1406 1.0938 3.2617 2.6289 0.11719 1.5586-1.1797 2.9102-2.9062 3.0156l-11.633 0.73828c-0.56641 0.035156-1.1328-0.070313-1.6406-0.30078z" fill-rule="evenodd"/>
<text x="0.0" y="117.5" font-size="5.0" font-weight="bold" font-family="Arbeit Regular, Helvetica, Arial-Unicode, Arial, Sans-serif" fill="#000000">Created by Heztasia</text><text x="0.0" y="122.5" font-size="5.0" font-weight="bold" font-family="Arbeit Regular, Helvetica, Arial-Unicode, Arial, Sans-serif" fill="#000000">from Noun Project</text></svg>