<svg xmlns="http://www.w3.org/2000/svg" data-name="Layer 1" viewBox="0 0 128 160" x="0px" y="0px"><title>79 Web Icon Set 38 expanded</title><path d="M64,0a64,64,0,1,0,64,64A64.07239,64.07239,0,0,0,64,0Zm0,124a60,60,0,1,1,60-60A60.06812,60.06812,0,0,1,64,124Z"/><path d="M64,8.70215A55.29785,55.29785,0,1,0,119.29834,64,55.36075,55.36075,0,0,0,64,8.70215Zm2,106.54492v-6.65039a2,2,0,1,0-4,0v6.65039A51.34962,51.34962,0,0,1,12.75244,66h7.65088a2,2,0,0,0,0-4H12.75244A51.34962,51.34962,0,0,1,62,12.75293v6.65039a2,2,0,0,0,4,0V12.75293A51.34962,51.34962,0,0,1,115.24756,62H107.4209a2,2,0,0,0,0,4h7.82666A51.34962,51.34962,0,0,1,66,115.24707Z"/><circle cx="104.24562" cy="45.50876" r="3.26313" transform="translate(0.55163 92.26079) rotate(-47.85279)"/><circle cx="45.50879" cy="23.75438" r="3.26313" transform="translate(-2.64138 41.55554) rotate(-47.85276)"/><circle cx="82.49124" cy="104.24561" r="3.26313" transform="translate(-50.15354 95.45287) rotate(-47.8524)"/><circle cx="23.75439" cy="82.49121" r="3.26315" transform="translate(-53.34657 44.74851) rotate(-47.85276)"/><circle cx="24.84212" cy="44.42104" r="3.26313" transform="translate(-24.76259 33.03102) rotate(-47.8524)"/><circle cx="83.57896" cy="24.8421" r="3.26315" transform="translate(9.0755 70.13898) rotate(-47.8524)"/><circle cx="103.1579" cy="83.57893" r="2.99999" transform="translate(-28.03232 103.97788) rotate(-47.85275)"/><circle cx="44.42107" cy="103.15788" r="3.26313" transform="translate(-61.87054 66.86913) rotate(-47.8524)"/><path d="M80.50391,49.91406a18.28214,18.28214,0,0,0-1.94238-8.6709A13.49908,13.49908,0,0,0,72.748,35.5166a18.8808,18.8808,0,0,0-8.74512-1.91113,16.6334,16.6334,0,0,0-8.57422,2.15723,14.65,14.65,0,0,0-5.72607,6.30664,23.08745,23.08745,0,0,0-2.12451,9.57129,2.0001,2.0001,0,0,0,2,2h7.94141a2.03324,2.03324,0,0,0,2-2.01953,8.96951,8.96951,0,0,1,1.34668-5.28516,3.69074,3.69074,0,0,1,3.21289-1.48047,4.25819,4.25819,0,0,1,3.30957,1.20117,5.516,5.516,0,0,1,1.17383,3.85742,8.99019,8.99019,0,0,1-.46582,2.93555,11.93949,11.93949,0,0,1-1.24609,2.5957c-.56543.874-1.35791,2.01172-2.34375,3.36621-1.44385,1.94336-2.63037,3.69043-3.52637,5.19336a25.03343,25.03343,0,0,0-2.42822,5.83984,28.2296,28.2296,0,0,0-.99951,7.80566,2.0001,2.0001,0,0,0,2,2h7.82617a2.0001,2.0001,0,0,0,2-2,19.45693,19.45693,0,0,1,.72021-5.5791,16.95009,16.95009,0,0,1,1.7749-4.08105A51.17669,51.17669,0,0,1,74.873,63.791c1.20508-1.57129,2.17627-2.9375,2.88574-4.0625a18.93949,18.93949,0,0,0,1.9375-4.24707A18.00094,18.00094,0,0,0,80.50391,49.91406Zm-4.6123,4.33105A14.93505,14.93505,0,0,1,74.376,57.59375c-.645,1.02246-1.54541,2.28809-2.666,3.749a54.92536,54.92536,0,0,0-3.22607,4.52441A20.93277,20.93277,0,0,0,66.27,70.915a21.498,21.498,0,0,0-.82422,4.73535H61.61621a22.1008,22.1008,0,0,1,.77881-4.69434v-.001a21.08245,21.08245,0,0,1,2.021-4.90137c.82715-1.3877,1.938-3.02148,3.31348-4.873,1.04-1.42871,1.874-2.627,2.478-3.56055a15.90789,15.90789,0,0,0,1.67041-3.4668A13.03757,13.03757,0,0,0,72.5625,49.876a9.28036,9.28036,0,0,0-2.24023-6.53809,8.12988,8.12988,0,0,0-6.24316-2.48242,7.686,7.686,0,0,0-6.416,3.08594,11.418,11.418,0,0,0-2.02979,5.69922h-3.918A17.37344,17.37344,0,0,1,53.292,43.835a10.56894,10.56894,0,0,1,4.16992-4.627,12.7052,12.7052,0,0,1,6.541-1.60254,14.96087,14.96087,0,0,1,6.90576,1.46289,9.441,9.441,0,0,1,4.123,4.05664,14.41586,14.41586,0,0,1,1.47217,6.82813A13.93447,13.93447,0,0,1,75.8916,54.24512Z"/><path d="M67.57031,81.75h-8.209a2.0001,2.0001,0,0,0-2,2v8.21a2.0001,2.0001,0,0,0,2,2h8.209a2.0001,2.0001,0,0,0,2-2V83.75A2.0001,2.0001,0,0,0,67.57031,81.75Zm-2,8.21h-4.209V85.75h4.209Z"/><text x="0" y="143" fill="#000000" font-size="5px" font-weight="bold" font-family="'Helvetica Neue', Helvetica, Arial-Unicode, Arial, Sans-serif">Created by Creative Mahira</text><text x="0" y="148" fill="#000000" font-size="5px" font-weight="bold" font-family="'Helvetica Neue', Helvetica, Arial-Unicode, Arial, Sans-serif">from the Noun Project</text></svg>