<svg xmlns="http://www.w3.org/2000/svg" data-name="Layer 1" viewBox="0 0 64 80" x="0px" y="0px"><path d="M10.65,39.241a1,1,0,0,0-1.357.052l-3,3a1,1,0,0,0,0,1.414l9,9a1,1,0,0,0,1.1.212l5.61-2.4L22,63h2l0-14a1,1,0,0,0-1.394-.919l-6.381,2.733L8.414,43l1.639-1.638,6.3,5.4a1,1,0,0,0,1.1.136l5.158-2.579A3.025,3.025,0,0,1,23.947,44h6.709l-2.614,8.713a1,1,0,0,0,.1.8l3,5a1,1,0,0,0,1.714,0l3-5a1,1,0,0,0,.1-.8L33.344,44h6.715a3.009,3.009,0,0,1,1.342.317L46.553,46.9a1,1,0,0,0,1.1-.136l6.3-5.4L55.586,43l-7.815,7.814L41.4,48.081A1,1,0,0,0,40,49l0,14h2l0-12.483,5.6,2.4a1,1,0,0,0,1.1-.212l9-9a1,1,0,0,0,0-1.414l-3-3a1,1,0,0,0-1.357-.052l-6.5,5.568L42.3,42.529A5.027,5.027,0,0,0,40.059,42H35.448a6.5,6.5,0,1,0-6.9,0H23.947a5.029,5.029,0,0,0-2.235.527l-4.566,2.282ZM33.915,52.864,32,56.056l-1.915-3.192L32,46.48ZM27.5,36.5A4.5,4.5,0,1,1,32,41,4.505,4.505,0,0,1,27.5,36.5Z"/><path d="M32,3a5,5,0,0,1,0,10,1,1,0,0,0-1,1v6h2V14.929A7,7,0,1,0,25,8h2A5.006,5.006,0,0,1,32,3Z"/><rect x="31" y="22.4" width="2" height="2.4"/><path d="M53.051,22.556a5.656,5.656,0,1,0-.769-8.643L53.7,15.327a3.743,3.743,0,0,1,5.169,0,3.653,3.653,0,0,1,0,5.17,3.742,3.742,0,0,1-5.169,0,1,1,0,0,0-1.414,0L48.99,23.789,50.4,25.2Z"/><rect x="46.792" y="25.471" width="1.862" height="2" transform="translate(-4.74 41.498) rotate(-45)"/><path d="M5.135,20.5a3.653,3.653,0,0,1,0-5.17,3.743,3.743,0,0,1,5.169,0,3.655,3.655,0,0,1,0,5.17,1,1,0,0,0,0,1.414L13.6,25.2l1.414-1.414-2.647-2.647a5.656,5.656,0,0,0-8.642-7.229,5.652,5.652,0,0,0,0,8Z"/><rect x="15.277" y="25.539" width="2" height="1.862" transform="translate(-13.95 19.263) rotate(-45)"/><text x="0" y="79" fill="#000000" font-size="5px" font-weight="bold" font-family="'Helvetica Neue', Helvetica, Arial-Unicode, Arial, Sans-serif">Created by Kamin Ginkaew</text><text x="0" y="84" fill="#000000" font-size="5px" font-weight="bold" font-family="'Helvetica Neue', Helvetica, Arial-Unicode, Arial, Sans-serif">from the Noun Project</text></svg>