<svg xmlns="http://www.w3.org/2000/svg" version="1.1" viewBox="-5.0 -10.0 110.0 135.0">
 <path d="m10.93 30.648h10.895c2.7344 0 5.2188 1.1133 7.0156 2.9102s2.9141 4.2773 2.9141 7.0156v44.328c0 2.7344-1.1172 5.2188-2.9141 7.0156s-4.2773 2.9141-7.0156 2.9141h-10.895c-2.7344 0-5.2188-1.1172-7.0156-2.9141-1.7969-1.7969-2.9102-4.2773-2.9102-7.0156v-44.328c0-2.7344 1.1172-5.2188 2.9102-7.0156 1.7969-1.7969 4.2773-2.9102 7.0156-2.9102zm28.203 59.375c-1.2695 0-2.2969-1.0273-2.2969-2.2969 0-1.2695 1.0273-2.2969 2.2969-2.2969h45.098c1.3281 0 2.543-0.46875 3.4688-1.2539 0.9375-0.79688 1.5938-1.9219 1.8047-3.2266l4.8438-30.109c0.12891-0.80859 0.09375-1.582-0.10938-2.2969-0.19922-0.71875-0.56641-1.3906-1.0938-2.0117-0.53516-0.62891-1.1445-1.0977-1.8164-1.4102-0.66406-0.30469-1.4219-0.46484-2.25-0.46484h-9.3281c-1.5195 0-2.9453-0.31641-4.25-0.93359-1.2969-0.61328-2.4453-1.5195-3.4141-2.6992-0.97266-1.1836-1.6367-2.4883-1.9844-3.8789-0.34766-1.3945-0.38281-2.8555-0.085937-4.3438l3.1602-15.898c0.28125-1.4141-0.019531-2.8125-0.73047-3.9258-0.71875-1.1172-1.8516-1.9727-3.2461-2.3086l-3.0898-0.74219c-1.1328-0.27344-2.2539-0.1875-3.2422 0.21094-0.98828 0.39453-1.8633 1.1055-2.4922 2.0898l-19.305 29.961c-0.68359 1.0664-2.1016 1.375-3.168 0.69141s-1.375-2.1016-0.69141-3.168l19.305-29.961c1.1562-1.8008 2.7852-3.1172 4.6445-3.8594s3.9453-0.91016 6.0273-0.40625l3.0898 0.74219c2.582 0.625 4.6953 2.2148 6.0312 4.3008 1.3359 2.0898 1.8945 4.668 1.3789 7.2656l-3.1602 15.898c-0.16406 0.82812-0.15234 1.6211 0.03125 2.3516 0.1875 0.74219 0.54297 1.4414 1.0703 2.082 0.53125 0.64453 1.1484 1.1328 1.8359 1.4609 0.67969 0.32031 1.4492 0.48437 2.2969 0.48437h9.3281c1.4844 0 2.8828 0.30469 4.168 0.89453 1.2773 0.58984 2.4102 1.457 3.3789 2.5938 0.97266 1.1406 1.6484 2.3984 2.0312 3.7539 0.37891 1.3516 0.45312 2.7773 0.21484 4.2539l-4.8438 30.109c-0.39062 2.4258-1.6094 4.5078-3.3438 5.9883-1.7461 1.4883-4.0039 2.3672-6.4453 2.3672h-45.098zm-17.309-54.781h-10.895c-1.4688 0-2.8008 0.60156-3.7695 1.5664-0.96484 0.96484-1.5664 2.2969-1.5664 3.7656v44.328c0 1.4688 0.60156 2.8008 1.5664 3.7656 0.96484 0.96484 2.3008 1.5664 3.7695 1.5664h10.895c1.4688 0 2.8008-0.60156 3.7695-1.5664 0.96484-0.96484 1.5664-2.2969 1.5664-3.7656v-44.328c0-1.4688-0.60156-2.8008-1.5664-3.7656s-2.3008-1.5664-3.7695-1.5664z"/>
<text x="0.0" y="117.5" font-size="5.0" font-weight="bold" font-family="Arbeit Regular, Helvetica, Arial-Unicode, Arial, Sans-serif" fill="#000000">Created by YANDI RS</text><text x="0.0" y="122.5" font-size="5.0" font-weight="bold" font-family="Arbeit Regular, Helvetica, Arial-Unicode, Arial, Sans-serif" fill="#000000">from Noun Project</text></svg>